<?xml version="1.0" standalone="no"?>
<!DOCTYPE svg PUBLIC "-//W3C//DTD SVG 20010904//EN"
 "http://www.w3.org/TR/2001/REC-SVG-20010904/DTD/svg10.dtd">
<svg version="1.0" xmlns="http://www.w3.org/2000/svg"
 width="3264.000000pt" height="3264.000000pt" viewBox="0 0 3264.000000 3264.000000"
 preserveAspectRatio="xMidYMid meet">

<g transform="translate(0.000000,3264.000000) scale(0.100000,-0.100000)"
fill="#000000" stroke="none">
<path d="M15590 32250 c-63 -4 -259 -15 -435 -24 -416 -21 -596 -34 -648 -45
-82 -19 -174 -31 -397 -51 -124 -11 -259 -29 -300 -39 -80 -21 -164 -34 -325
-51 -55 -6 -154 -24 -220 -40 -66 -16 -173 -36 -239 -45 -65 -9 -152 -27 -195
-40 -42 -13 -134 -33 -205 -45 -70 -11 -149 -29 -175 -40 -25 -11 -105 -31
-177 -44 -73 -13 -146 -32 -164 -41 -18 -9 -84 -28 -147 -41 -64 -13 -143 -34
-177 -48 -33 -13 -99 -32 -146 -41 -46 -10 -109 -28 -140 -42 -30 -13 -89 -31
-130 -40 -41 -8 -96 -26 -121 -39 -26 -13 -87 -33 -135 -45 -49 -12 -110 -32
-135 -45 -25 -12 -82 -32 -127 -44 -45 -11 -96 -29 -114 -40 -18 -10 -69 -29
-113 -40 -44 -12 -98 -32 -120 -45 -22 -12 -74 -32 -115 -45 -41 -12 -93 -32
-115 -45 -22 -13 -67 -31 -100 -40 -33 -9 -79 -28 -102 -41 -23 -13 -73 -34
-110 -45 -37 -12 -80 -30 -95 -41 -15 -10 -60 -30 -99 -43 -39 -13 -86 -34
-104 -45 -18 -11 -59 -29 -91 -41 -33 -11 -75 -30 -94 -43 -19 -12 -60 -31
-90 -40 -30 -10 -68 -27 -83 -38 -16 -11 -60 -33 -98 -49 -39 -15 -81 -37 -95
-48 -14 -11 -49 -27 -77 -37 -29 -9 -62 -25 -74 -36 -12 -11 -52 -31 -89 -44
-37 -14 -80 -35 -95 -48 -16 -13 -50 -32 -76 -42 -26 -9 -62 -28 -79 -40 -18
-13 -58 -35 -90 -49 -32 -14 -67 -33 -77 -42 -10 -9 -44 -31 -77 -47 -32 -17
-92 -48 -132 -69 -39 -20 -81 -46 -93 -56 -11 -10 -42 -28 -70 -40 -27 -12
-59 -30 -70 -41 -11 -10 -42 -29 -70 -42 -27 -13 -70 -38 -94 -56 -24 -18 -50
-32 -57 -32 -7 0 -28 -13 -46 -29 -18 -15 -60 -42 -93 -59 -33 -16 -69 -39
-79 -51 -11 -12 -25 -21 -32 -21 -7 0 -33 -15 -57 -34 -24 -19 -66 -46 -93
-61 -27 -15 -58 -35 -69 -44 -11 -10 -41 -29 -66 -44 -25 -14 -52 -33 -59 -42
-8 -9 -32 -26 -54 -37 -23 -11 -57 -35 -78 -52 -36 -31 -67 -53 -147 -103 -24
-16 -61 -43 -83 -60 -22 -18 -44 -33 -49 -33 -4 0 -31 -20 -59 -45 -28 -25
-54 -45 -59 -45 -4 0 -35 -22 -69 -49 -34 -27 -71 -52 -82 -56 -11 -3 -25 -15
-30 -26 -6 -10 -25 -26 -43 -35 -18 -9 -51 -33 -74 -53 -23 -20 -72 -58 -109
-86 -37 -27 -89 -68 -115 -90 -27 -22 -74 -60 -105 -85 -30 -25 -72 -59 -92
-77 -54 -47 -130 -110 -207 -173 -37 -30 -85 -71 -106 -90 -21 -19 -61 -55
-90 -80 -28 -25 -71 -63 -94 -85 -24 -22 -63 -58 -87 -80 -184 -166 -277 -256
-542 -520 -166 -165 -346 -349 -401 -410 -54 -60 -112 -124 -129 -141 -17 -18
-51 -55 -76 -83 -25 -28 -63 -70 -85 -94 -69 -75 -118 -132 -175 -202 -30 -37
-89 -107 -130 -155 -41 -49 -95 -113 -120 -144 -45 -56 -93 -116 -160 -198
-20 -24 -47 -59 -60 -78 -13 -19 -37 -52 -54 -72 -37 -45 -86 -108 -129 -167
-18 -23 -51 -68 -74 -100 -24 -31 -51 -69 -60 -85 -10 -16 -34 -48 -53 -71
-19 -23 -48 -62 -63 -86 -42 -66 -93 -140 -120 -174 -13 -16 -30 -41 -37 -55
-7 -14 -26 -40 -41 -58 -16 -18 -38 -52 -50 -75 -12 -23 -31 -52 -42 -65 -12
-12 -33 -42 -47 -66 -30 -52 -77 -125 -107 -169 -12 -18 -34 -54 -49 -82 -15
-27 -39 -65 -55 -85 -15 -19 -35 -51 -43 -71 -8 -19 -22 -42 -31 -49 -9 -8
-32 -44 -51 -81 -18 -37 -38 -71 -44 -74 -6 -4 -22 -32 -36 -63 -14 -31 -34
-66 -44 -77 -10 -11 -30 -45 -43 -76 -14 -30 -32 -60 -40 -67 -8 -7 -27 -40
-42 -75 -15 -34 -35 -70 -44 -80 -16 -19 -55 -91 -126 -237 -20 -41 -43 -82
-51 -91 -8 -9 -25 -44 -39 -79 -14 -35 -31 -71 -40 -80 -8 -9 -28 -49 -45 -90
-17 -41 -37 -81 -45 -90 -8 -8 -27 -48 -44 -89 -16 -40 -37 -81 -45 -90 -9
-10 -25 -44 -36 -77 -11 -32 -31 -75 -44 -94 -12 -19 -31 -60 -41 -90 -9 -30
-30 -77 -45 -105 -15 -27 -36 -75 -45 -105 -10 -30 -27 -67 -37 -83 -11 -15
-31 -62 -45 -104 -14 -43 -33 -89 -43 -103 -10 -14 -26 -52 -35 -85 -10 -33
-30 -85 -46 -115 -15 -30 -35 -82 -45 -115 -9 -33 -29 -85 -45 -115 -15 -30
-35 -84 -44 -119 -9 -36 -27 -85 -40 -110 -12 -25 -33 -82 -45 -126 -12 -44
-32 -100 -45 -125 -12 -25 -30 -79 -40 -120 -10 -41 -29 -97 -41 -125 -13 -28
-33 -90 -44 -140 -12 -49 -31 -106 -41 -128 -11 -21 -31 -87 -44 -147 -13 -60
-33 -126 -44 -147 -10 -21 -27 -81 -36 -133 -10 -52 -27 -122 -40 -155 -33
-87 -32 -85 -50 -191 -9 -53 -27 -124 -40 -158 -13 -34 -33 -122 -45 -196 -13
-74 -31 -157 -42 -184 -10 -27 -30 -121 -43 -210 -14 -88 -32 -182 -40 -207
-18 -54 -29 -118 -50 -289 -9 -69 -25 -163 -36 -210 -11 -47 -31 -191 -44
-320 -14 -129 -31 -269 -40 -310 -19 -98 -32 -222 -45 -450 -6 -102 -18 -279
-26 -395 -30 -424 -43 -706 -43 -950 -1 -311 14 -719 33 -919 8 -83 17 -205
21 -271 16 -330 37 -590 55 -685 11 -58 27 -175 35 -260 22 -223 35 -315 56
-400 10 -41 27 -151 39 -245 11 -93 31 -208 45 -255 13 -47 29 -125 35 -175
13 -101 34 -199 55 -261 8 -23 23 -96 34 -162 11 -66 32 -153 45 -194 14 -40
34 -123 46 -184 11 -61 31 -138 45 -172 13 -33 30 -94 36 -134 6 -40 24 -105
39 -144 16 -39 38 -115 49 -169 12 -53 30 -114 41 -135 11 -22 29 -78 40 -125
11 -48 31 -110 45 -139 14 -29 32 -86 41 -127 9 -41 27 -95 40 -121 13 -26 33
-82 45 -125 12 -43 32 -98 44 -123 12 -25 32 -80 44 -124 12 -43 32 -97 46
-120 13 -22 29 -63 36 -91 6 -27 25 -77 41 -110 17 -33 39 -89 50 -124 11 -35
30 -80 43 -100 13 -20 30 -63 39 -95 8 -33 25 -73 36 -89 12 -16 33 -60 46
-99 13 -39 35 -91 50 -115 14 -24 32 -65 40 -92 7 -26 25 -64 38 -83 13 -19
31 -58 40 -85 9 -28 29 -70 44 -94 15 -24 38 -71 50 -104 13 -33 29 -67 37
-75 8 -9 28 -49 45 -90 17 -41 37 -81 45 -90 8 -9 27 -45 41 -81 14 -35 34
-73 45 -84 10 -11 25 -39 33 -62 8 -23 33 -72 55 -109 23 -37 41 -73 41 -79 0
-7 14 -31 30 -54 17 -23 41 -66 54 -95 13 -29 29 -57 36 -61 6 -4 25 -37 42
-74 16 -36 38 -75 48 -86 11 -11 30 -45 43 -76 14 -30 33 -61 42 -69 9 -8 27
-37 39 -65 13 -27 34 -64 48 -80 14 -17 33 -48 42 -70 10 -22 28 -51 40 -65
13 -14 34 -45 46 -70 13 -25 36 -61 51 -80 16 -19 29 -40 29 -47 0 -6 16 -32
35 -57 19 -25 43 -62 54 -84 11 -21 27 -44 36 -52 9 -8 26 -32 37 -54 11 -23
34 -56 49 -74 16 -18 38 -51 50 -74 12 -23 34 -55 50 -71 16 -16 29 -34 29
-41 0 -7 15 -30 33 -52 19 -21 46 -60 60 -85 15 -25 37 -55 48 -65 12 -10 29
-35 39 -55 10 -19 26 -42 35 -49 9 -8 32 -37 51 -65 47 -69 127 -175 199 -263
17 -20 43 -56 58 -79 15 -24 31 -43 35 -43 4 0 16 -14 26 -31 10 -17 37 -53
60 -79 22 -27 61 -74 86 -104 80 -100 155 -189 247 -297 26 -30 71 -81 98
-114 28 -32 66 -75 85 -96 19 -21 55 -62 80 -90 25 -29 63 -71 85 -94 22 -24
78 -84 125 -135 47 -50 139 -147 205 -214 66 -68 130 -134 141 -147 12 -13
102 -100 199 -194 98 -93 197 -188 220 -210 40 -39 184 -171 272 -250 25 -22
62 -56 84 -75 21 -19 70 -62 109 -95 206 -173 268 -226 295 -253 17 -16 49
-41 73 -56 23 -14 42 -30 42 -35 0 -5 17 -20 37 -32 34 -21 69 -49 178 -142
22 -19 54 -42 72 -51 18 -9 36 -22 40 -30 4 -8 29 -29 55 -48 141 -99 169
-120 194 -143 15 -14 31 -25 35 -25 5 0 26 -15 46 -34 21 -18 49 -39 63 -46
14 -7 50 -33 81 -57 30 -23 60 -43 65 -43 6 0 21 -11 34 -25 13 -14 48 -39 77
-55 29 -17 53 -34 53 -39 0 -4 26 -22 59 -39 32 -18 64 -39 72 -48 7 -8 34
-26 59 -39 25 -13 52 -31 60 -40 7 -8 41 -31 76 -51 34 -19 68 -41 74 -49 7
-9 31 -24 54 -34 23 -10 64 -35 90 -55 26 -20 54 -36 61 -36 8 0 29 -13 47
-29 18 -15 60 -42 94 -59 33 -17 66 -37 72 -45 7 -8 27 -21 45 -28 18 -7 52
-27 77 -44 25 -17 64 -39 87 -49 23 -11 50 -27 58 -37 9 -9 42 -27 73 -40 31
-12 71 -35 89 -50 17 -15 49 -32 70 -39 21 -7 51 -22 67 -34 30 -22 117 -68
246 -131 41 -20 82 -43 91 -51 9 -8 42 -25 75 -38 32 -12 76 -35 98 -49 21
-15 55 -31 76 -37 20 -5 57 -23 81 -40 24 -17 66 -37 94 -45 27 -8 65 -26 85
-40 19 -13 62 -34 95 -45 33 -11 76 -31 95 -44 19 -12 60 -31 90 -41 30 -9 74
-28 98 -42 24 -13 68 -33 99 -44 31 -10 75 -30 97 -43 23 -13 68 -32 101 -41
33 -10 83 -30 110 -45 28 -15 77 -35 110 -45 33 -9 78 -27 100 -40 22 -13 69
-31 105 -40 36 -9 90 -29 120 -44 30 -15 84 -36 120 -46 36 -9 86 -28 111 -41
25 -12 83 -32 129 -44 46 -12 104 -32 129 -44 25 -13 79 -30 119 -39 39 -9 96
-28 125 -41 28 -14 93 -34 144 -45 50 -11 112 -29 138 -41 25 -11 94 -32 153
-45 59 -13 128 -33 153 -44 25 -11 90 -29 145 -40 54 -11 128 -31 164 -44 37
-14 104 -31 150 -37 47 -7 126 -25 175 -41 50 -15 146 -37 215 -48 69 -11 154
-30 190 -41 36 -12 128 -30 205 -41 77 -11 185 -30 240 -44 55 -13 161 -31
235 -40 151 -18 271 -37 375 -59 39 -8 181 -24 317 -36 136 -11 253 -23 260
-25 65 -23 547 -56 1028 -69 765 -22 1889 9 2170 59 41 7 131 19 200 25 329
30 439 42 490 55 75 18 159 31 327 50 78 9 172 25 210 36 37 11 145 31 239 44
94 14 196 34 227 44 30 11 115 29 187 41 72 11 153 29 180 40 26 10 88 26 137
35 131 23 183 36 228 56 22 10 92 27 155 39 63 12 141 33 173 46 32 14 100 33
152 44 52 11 113 29 136 40 22 12 81 30 131 40 50 11 114 31 142 44 28 13 88
33 133 45 46 11 106 31 135 44 29 13 87 32 128 41 41 9 90 27 110 41 19 13 72
33 118 44 45 11 101 31 125 44 23 14 71 32 107 42 36 9 83 27 105 40 22 12 74
33 115 45 41 12 87 31 103 42 15 11 61 30 101 42 41 13 87 32 102 43 16 11 61
30 99 43 39 13 83 32 98 43 16 11 57 28 90 39 34 10 79 30 101 44 21 14 60 32
86 40 26 8 65 26 86 40 21 15 64 35 94 46 30 10 71 30 90 43 19 13 62 34 95
45 32 11 68 29 80 40 12 11 47 29 79 40 31 10 71 30 87 44 16 13 55 34 86 46
32 12 67 30 79 41 11 10 49 31 85 45 35 14 73 34 84 44 11 10 40 27 65 38 25
11 69 36 99 56 29 20 58 36 65 36 7 0 28 12 47 26 19 15 61 39 95 54 33 16 67
36 74 45 8 10 39 28 69 42 31 13 65 32 76 42 11 10 39 28 63 40 24 12 63 37
88 56 25 19 52 35 59 35 8 0 29 13 47 29 18 15 53 39 78 51 25 13 58 34 74 47
16 13 51 35 77 49 27 13 49 28 49 33 0 4 26 22 59 39 32 18 64 39 72 48 7 8
33 26 58 39 25 12 55 33 66 45 11 12 41 33 66 45 25 13 51 31 59 40 8 9 35 27
60 40 25 13 53 31 60 40 8 9 38 32 67 51 29 19 53 37 53 42 0 4 27 22 59 40
32 18 61 39 64 47 4 8 24 23 46 34 21 11 48 31 58 44 10 14 37 34 58 45 22 11
49 30 60 42 11 12 39 33 62 46 23 14 49 36 57 49 9 14 32 31 50 39 19 8 42 26
51 40 9 14 37 37 61 51 24 14 44 32 44 40 0 8 25 29 55 47 31 18 55 40 55 49
0 22 20 38 59 45 35 7 50 29 34 45 -16 16 -97 -15 -101 -37 -5 -26 -31 -44
-62 -44 -27 0 -60 -27 -60 -49 0 -6 -14 -14 -30 -18 -17 -3 -45 -19 -63 -36
-18 -17 -57 -43 -88 -58 -31 -16 -59 -35 -63 -44 -3 -9 -25 -24 -50 -34 -24
-11 -50 -28 -57 -39 -8 -10 -32 -28 -55 -40 -22 -11 -60 -37 -83 -56 -24 -20
-49 -36 -57 -36 -8 0 -31 -15 -51 -34 -21 -18 -58 -44 -83 -56 -25 -13 -61
-36 -80 -51 -19 -16 -40 -29 -47 -29 -6 0 -33 -16 -59 -36 -26 -20 -67 -45
-90 -55 -23 -10 -47 -26 -54 -34 -8 -9 -41 -30 -74 -46 -34 -17 -70 -39 -81
-49 -11 -11 -38 -26 -60 -35 -21 -9 -53 -28 -70 -41 -17 -13 -53 -33 -81 -45
-27 -12 -65 -34 -84 -49 -19 -15 -55 -35 -80 -44 -25 -10 -53 -25 -63 -34 -19
-17 -85 -52 -243 -130 -45 -22 -84 -45 -88 -50 -3 -6 -31 -20 -61 -31 -30 -11
-72 -32 -94 -46 -21 -14 -62 -35 -92 -46 -29 -11 -66 -29 -81 -41 -16 -11 -55
-30 -88 -43 -33 -13 -73 -33 -89 -45 -17 -11 -56 -30 -88 -41 -32 -11 -74 -30
-93 -43 -19 -12 -60 -31 -90 -41 -30 -9 -71 -28 -90 -41 -19 -13 -66 -33 -105
-45 -38 -12 -81 -30 -94 -40 -13 -11 -53 -28 -90 -39 -36 -12 -84 -31 -106
-44 -22 -13 -73 -34 -114 -46 -41 -12 -90 -32 -110 -45 -20 -13 -65 -31 -101
-40 -36 -9 -83 -27 -106 -40 -22 -13 -72 -32 -110 -41 -38 -9 -94 -30 -125
-45 -31 -15 -87 -35 -125 -44 -38 -9 -90 -27 -116 -40 -27 -14 -86 -34 -133
-45 -47 -11 -107 -31 -133 -44 -26 -13 -83 -31 -127 -41 -43 -9 -111 -30 -150
-45 -38 -16 -107 -36 -153 -45 -46 -9 -107 -27 -137 -40 -29 -13 -93 -31 -142
-40 -48 -9 -126 -29 -173 -45 -47 -16 -127 -37 -179 -45 -52 -9 -126 -27 -165
-40 -39 -14 -127 -34 -196 -45 -69 -11 -150 -28 -181 -39 -31 -11 -123 -30
-205 -41 -82 -12 -189 -32 -239 -45 -49 -13 -169 -33 -265 -45 -96 -11 -211
-29 -255 -39 -86 -21 -187 -33 -410 -51 -77 -7 -191 -20 -253 -31 -159 -27
-286 -36 -702 -54 -747 -31 -940 -35 -1226 -25 -1024 37 -1172 46 -1389 84
-44 8 -145 19 -225 26 -207 16 -299 27 -435 55 -66 13 -186 31 -268 40 -81 9
-183 27 -226 40 -44 13 -137 31 -208 40 -148 19 -194 28 -245 49 -20 9 -98 25
-174 36 -76 12 -165 32 -198 44 -34 13 -106 31 -161 40 -55 10 -138 30 -185
46 -47 16 -131 38 -186 49 -56 11 -120 29 -143 40 -23 12 -83 30 -134 41 -50
10 -112 28 -137 39 -25 11 -92 31 -149 46 -57 14 -121 35 -142 46 -21 10 -77
28 -125 39 -47 11 -105 31 -127 44 -23 13 -76 31 -117 41 -41 10 -93 28 -115
40 -22 12 -75 32 -117 44 -42 11 -103 34 -135 49 -32 16 -80 35 -108 41 -27 7
-70 24 -93 38 -24 14 -72 33 -107 43 -35 10 -83 29 -107 43 -23 14 -70 33
-103 42 -33 9 -80 29 -105 45 -25 16 -64 33 -88 40 -24 6 -77 29 -118 51 -41
21 -83 39 -93 39 -10 0 -36 12 -57 27 -21 14 -71 39 -111 53 -39 15 -84 36
-100 47 -15 11 -55 30 -88 42 -33 13 -67 29 -75 36 -9 8 -47 27 -85 43 -39 15
-87 40 -108 55 -21 14 -55 31 -75 38 -20 6 -52 23 -71 37 -18 13 -56 33 -83
44 -28 10 -65 30 -82 43 -17 13 -51 31 -76 41 -25 10 -61 30 -80 44 -19 15
-56 35 -82 44 -26 9 -63 30 -83 46 -20 16 -46 32 -58 36 -12 4 -40 19 -62 34
-22 15 -65 40 -95 55 -30 15 -64 35 -75 46 -11 10 -41 27 -66 38 -26 12 -52
28 -60 37 -7 8 -38 29 -68 45 -81 43 -161 93 -196 122 -16 13 -57 38 -91 55
-33 17 -66 38 -74 47 -8 9 -35 27 -60 40 -25 13 -52 31 -60 40 -7 9 -32 26
-54 37 -23 12 -59 36 -80 54 -22 19 -44 34 -49 34 -5 0 -26 15 -47 32 -20 18
-59 45 -86 61 -50 28 -109 71 -175 126 -20 17 -40 31 -45 31 -5 0 -30 17 -55
38 -48 39 -119 92 -173 129 -17 12 -44 33 -61 47 -36 32 -104 84 -165 127 -25
18 -62 46 -82 63 -21 17 -60 49 -88 71 -28 22 -71 58 -95 80 -24 22 -69 60
-100 85 -79 62 -164 134 -204 173 -19 17 -45 39 -57 47 -22 15 -154 133 -230
205 -23 22 -84 78 -135 125 -117 107 -696 687 -809 810 -47 51 -103 112 -125
136 -69 75 -181 201 -242 271 -91 106 -140 164 -183 218 -25 31 -60 73 -78 92
-18 19 -41 48 -53 64 -11 16 -32 42 -47 58 -15 16 -44 51 -64 77 -21 27 -53
69 -73 94 -19 25 -48 64 -63 86 -27 40 -47 66 -118 152 -17 20 -41 54 -54 76
-13 21 -39 57 -59 81 -20 23 -44 55 -53 71 -10 16 -38 56 -63 89 -24 33 -58
80 -74 105 -16 25 -41 61 -56 80 -37 51 -90 128 -121 180 -15 25 -37 56 -49
70 -13 14 -31 41 -40 60 -10 19 -35 59 -56 89 -22 30 -39 59 -39 65 0 6 -13
27 -29 46 -15 19 -36 51 -46 70 -10 19 -31 51 -47 72 -15 20 -35 52 -43 71 -8
19 -25 48 -38 63 -13 16 -31 47 -41 69 -10 22 -29 54 -41 70 -12 17 -35 55
-50 85 -15 30 -38 69 -50 85 -13 17 -26 40 -29 52 -4 12 -22 44 -40 70 -18 27
-38 64 -46 83 -7 19 -26 53 -41 75 -15 22 -36 60 -45 85 -9 25 -28 60 -41 78
-14 18 -36 61 -49 94 -13 34 -30 68 -38 77 -8 9 -29 48 -46 86 -17 38 -38 77
-46 86 -7 8 -23 42 -34 75 -11 32 -31 75 -45 94 -13 19 -31 53 -38 75 -8 22
-33 75 -56 118 -22 43 -41 86 -41 96 0 10 -12 36 -26 57 -15 21 -37 70 -50
107 -13 38 -33 84 -44 102 -11 18 -32 66 -45 105 -13 39 -33 86 -45 104 -11
18 -29 64 -41 102 -12 38 -32 87 -44 109 -13 22 -31 69 -40 105 -9 36 -29 88
-45 115 -15 28 -33 75 -40 105 -7 30 -25 82 -41 115 -15 33 -35 89 -44 124 -9
36 -27 85 -40 111 -13 25 -33 85 -44 133 -11 48 -30 105 -41 127 -11 22 -32
88 -46 146 -14 59 -34 123 -45 143 -10 21 -29 82 -40 137 -12 54 -30 116 -41
137 -10 21 -30 93 -43 160 -14 67 -33 145 -44 173 -11 27 -29 99 -40 159 -12
60 -32 143 -45 185 -14 41 -34 135 -46 208 -12 72 -30 158 -41 189 -10 31 -28
125 -39 209 -12 84 -28 179 -37 211 -24 91 -30 127 -53 323 -12 101 -30 220
-40 265 -11 47 -30 211 -45 397 -14 174 -30 341 -35 370 -34 193 -54 809 -47
1463 7 555 18 826 42 995 15 109 24 202 50 525 9 105 25 228 36 275 11 47 27
150 35 230 21 206 32 275 54 355 10 39 26 124 35 190 17 123 32 197 59 295 8
30 22 100 30 155 9 55 28 143 44 195 16 52 37 138 46 191 9 53 27 125 40 160
13 35 31 104 41 153 9 49 27 116 40 150 14 33 34 106 46 161 12 55 30 117 40
138 11 20 30 84 44 141 14 57 33 119 44 138 11 18 29 74 41 123 12 50 30 105
41 124 11 19 31 73 43 120 13 48 35 109 48 136 14 28 31 75 38 105 7 30 25 78
41 106 15 29 35 80 44 115 9 35 27 83 40 106 13 23 33 73 45 110 13 37 33 86
46 109 14 23 31 65 40 95 9 30 27 73 41 97 13 24 35 75 48 113 13 38 33 81 44
95 11 14 25 42 31 62 7 20 32 80 57 132 25 52 66 138 90 190 25 52 54 111 64
130 11 19 31 60 45 90 13 30 30 64 36 75 20 32 93 173 134 255 20 41 44 84 53
95 10 11 28 45 40 75 13 30 31 64 42 75 10 11 27 40 38 65 11 25 31 60 45 78
13 18 30 48 37 65 7 18 32 61 56 96 24 35 43 69 43 76 0 7 14 29 30 50 17 21
40 59 51 84 11 25 31 57 44 71 13 14 31 41 39 61 8 20 26 50 39 65 14 16 36
52 50 80 14 27 33 56 42 64 9 8 27 35 40 60 13 25 31 52 40 60 9 8 27 35 41
62 13 26 37 63 54 81 16 19 30 39 30 44 0 5 15 27 33 49 18 21 44 57 57 79 13
22 33 51 45 65 12 14 34 46 49 73 15 26 30 47 35 47 4 0 18 18 30 40 12 23 40
61 62 86 21 25 39 49 39 54 0 5 19 32 43 59 23 28 57 70 75 93 18 24 48 63 67
88 19 25 51 69 71 98 20 28 40 52 45 52 4 0 18 17 30 38 13 20 35 51 51 67 33
36 95 110 163 196 46 57 78 95 183 217 74 86 180 205 242 271 19 21 78 85 129
142 106 116 659 670 793 794 207 192 257 237 276 250 10 8 35 29 54 47 19 18
59 53 88 78 28 25 66 59 84 76 17 17 38 35 47 40 9 5 65 50 124 99 118 99 181
151 252 208 27 21 75 60 107 87 33 28 63 50 68 50 4 0 25 15 45 33 21 18 55
44 76 56 20 12 37 27 37 31 0 5 20 21 44 35 23 14 51 34 62 46 10 11 44 36 76
55 32 20 58 39 58 43 0 4 19 18 43 31 23 13 58 37 78 54 20 17 49 39 65 48 39
23 122 81 159 111 17 13 46 32 65 42 19 10 49 30 67 46 18 15 52 36 75 47 24
10 52 29 63 41 11 13 34 29 52 36 17 7 56 32 86 54 30 23 59 41 65 41 6 0 26
13 44 29 18 15 53 38 78 51 25 12 59 32 75 45 17 12 53 34 82 48 28 15 55 32
59 38 3 6 32 22 63 36 31 13 67 35 81 48 14 13 45 31 70 41 25 10 58 28 74 42
17 13 54 34 83 47 29 13 67 35 85 48 18 14 44 28 58 32 14 4 48 22 75 40 28
19 70 41 95 50 24 9 54 25 65 35 12 11 48 31 81 43 32 13 76 36 97 50 21 14
55 31 75 38 20 6 62 26 92 44 30 18 73 39 95 45 22 7 55 23 73 37 17 13 58 33
89 44 31 10 76 31 100 45 24 14 69 34 99 44 30 11 68 29 84 40 16 12 61 32 99
45 38 13 89 35 113 48 24 14 63 31 88 37 25 7 68 24 95 40 28 15 77 35 110 45
33 9 83 29 110 45 28 15 73 33 100 39 28 7 75 25 106 41 30 16 84 36 119 45
35 9 89 29 119 44 31 16 89 36 130 45 41 9 92 27 115 40 23 13 75 32 116 41
41 10 98 29 127 42 29 13 90 32 137 43 46 11 108 31 138 44 29 14 97 34 150
45 53 11 114 29 135 39 21 11 88 30 148 42 61 12 135 32 165 45 30 12 108 32
173 44 65 12 140 31 167 41 27 11 104 29 172 40 68 11 159 32 203 45 44 14
132 32 195 40 63 9 169 29 235 45 66 16 183 36 259 45 77 8 174 24 215 35 89
22 172 33 406 55 94 9 215 25 270 35 93 17 369 40 680 55 72 4 222 13 335 21
469 34 1051 34 1510 0 113 -8 300 -20 415 -26 307 -16 456 -29 585 -50 63 -11
210 -29 325 -40 214 -21 309 -34 350 -50 21 -8 92 -19 339 -51 43 -6 106 -19
140 -30 34 -10 125 -28 202 -39 76 -11 175 -31 219 -45 44 -13 138 -34 208
-45 71 -11 145 -27 165 -36 56 -24 87 -32 192 -50 52 -9 122 -26 155 -39 33
-12 107 -32 165 -45 57 -12 121 -31 142 -41 21 -11 81 -28 133 -39 52 -10 119
-30 149 -44 29 -14 94 -34 144 -45 49 -11 112 -31 139 -44 26 -13 82 -32 123
-42 41 -10 96 -28 121 -41 25 -12 84 -32 129 -44 46 -12 102 -32 124 -45 23
-13 70 -31 105 -40 36 -9 87 -28 115 -42 27 -14 81 -34 118 -44 38 -11 92 -32
121 -48 29 -16 75 -34 102 -40 28 -7 66 -22 85 -35 19 -13 60 -31 90 -41 30
-9 78 -30 105 -45 28 -15 80 -37 117 -49 37 -12 78 -31 91 -41 13 -10 53 -28
90 -40 36 -12 77 -30 91 -41 14 -11 51 -29 83 -40 32 -11 75 -31 97 -45 21
-14 63 -34 94 -45 30 -10 70 -30 89 -45 18 -14 58 -34 88 -44 30 -10 70 -30
87 -43 18 -13 56 -32 83 -42 28 -10 59 -26 70 -35 11 -10 54 -34 95 -54 127
-62 219 -112 238 -129 9 -8 39 -25 66 -36 27 -12 61 -32 77 -45 16 -14 45 -30
66 -36 21 -7 55 -25 76 -42 21 -16 59 -39 85 -50 26 -11 62 -34 80 -49 18 -16
39 -29 47 -29 7 0 35 -16 61 -36 26 -20 66 -45 89 -55 23 -10 50 -28 61 -40
10 -12 39 -30 63 -41 24 -10 60 -33 79 -50 20 -17 49 -36 66 -43 17 -8 40 -23
51 -35 10 -11 39 -30 64 -41 25 -11 60 -33 76 -49 17 -16 47 -36 67 -44 21 -9
42 -24 47 -35 6 -10 32 -29 58 -41 26 -12 63 -36 82 -52 19 -17 49 -36 66 -44
18 -7 39 -24 49 -38 9 -15 32 -30 56 -36 28 -8 44 -19 50 -35 5 -14 23 -28 47
-35 21 -7 43 -17 49 -21 15 -12 37 14 32 38 -2 10 -17 23 -34 28 -37 12 -64
33 -64 50 0 7 -26 28 -57 48 -32 20 -64 45 -70 56 -7 11 -30 29 -50 40 -21 11
-44 29 -50 40 -7 11 -30 29 -50 40 -21 11 -43 28 -50 39 -6 10 -33 32 -60 47
-26 16 -64 43 -84 61 -20 17 -45 35 -56 38 -11 3 -29 20 -41 36 -13 17 -28 30
-35 30 -8 0 -31 15 -53 33 -21 19 -60 46 -85 60 -25 15 -55 37 -65 48 -10 12
-32 28 -49 36 -16 9 -43 27 -60 40 -36 29 -113 81 -175 119 -25 15 -58 40 -75
55 -16 15 -46 34 -65 42 -19 8 -55 31 -78 51 -24 20 -49 36 -56 36 -7 0 -30
15 -52 34 -21 18 -62 45 -91 59 -28 15 -54 31 -58 37 -4 6 -27 21 -53 34 -26
13 -58 34 -72 46 -14 12 -45 31 -70 42 -25 11 -56 30 -70 43 -14 13 -43 31
-65 40 -22 10 -55 28 -73 42 -18 13 -52 33 -77 44 -24 11 -57 30 -73 44 -15
13 -53 34 -83 48 -30 13 -60 31 -67 39 -7 9 -38 26 -69 39 -31 12 -79 38 -106
56 -27 18 -55 33 -62 33 -7 0 -35 15 -62 33 -27 18 -75 44 -106 56 -32 13 -60
28 -63 33 -4 6 -43 28 -88 49 -44 22 -97 48 -116 58 -98 52 -222 111 -233 111
-7 0 -39 15 -70 34 -31 19 -74 40 -94 46 -21 7 -65 27 -98 45 -33 18 -78 38
-100 45 -22 7 -63 25 -92 42 -28 16 -75 36 -104 44 -28 9 -68 26 -88 40 -20
13 -61 31 -91 40 -30 8 -84 30 -120 48 -36 18 -87 39 -115 45 -27 7 -72 25
-100 40 -27 16 -72 34 -99 40 -26 7 -74 25 -105 40 -31 16 -92 38 -136 50 -44
12 -94 31 -111 42 -17 10 -69 28 -114 40 -45 11 -103 31 -129 44 -25 13 -77
31 -116 40 -38 9 -99 29 -135 44 -36 16 -103 37 -150 46 -47 10 -106 28 -133
41 -26 14 -84 31 -130 40 -45 9 -110 27 -143 40 -34 13 -113 35 -175 49 -63
13 -137 33 -165 44 -28 11 -101 29 -163 41 -62 12 -135 30 -162 40 -27 11
-115 31 -197 45 -81 13 -174 34 -205 44 -31 11 -119 29 -195 40 -77 11 -182
31 -233 45 -52 13 -176 34 -277 46 -101 11 -195 25 -209 31 -59 22 -203 40
-523 65 -47 3 -132 15 -190 25 -107 20 -308 35 -845 66 -325 18 -1224 26
-1425 13z"/>
<path d="M16474 31070 c-94 -4 -187 -10 -205 -13 -19 -4 -173 -16 -344 -27
-454 -29 -570 -40 -671 -60 -51 -11 -161 -26 -245 -35 -198 -20 -285 -32 -384
-55 -44 -11 -150 -28 -235 -40 -85 -11 -184 -29 -220 -40 -35 -12 -133 -32
-216 -45 -83 -14 -168 -32 -190 -41 -21 -9 -99 -27 -172 -40 -73 -14 -156 -34
-185 -45 -28 -12 -99 -30 -157 -41 -57 -11 -129 -30 -160 -43 -30 -12 -101
-32 -157 -44 -56 -11 -119 -29 -140 -39 -21 -11 -81 -29 -133 -41 -52 -12
-118 -33 -147 -46 -28 -13 -90 -33 -138 -45 -48 -11 -108 -31 -134 -44 -25
-13 -77 -31 -116 -40 -38 -10 -85 -26 -104 -37 -18 -11 -72 -31 -120 -45 -47
-13 -106 -35 -131 -48 -25 -13 -72 -32 -105 -41 -33 -10 -82 -29 -109 -42 -27
-14 -72 -32 -100 -40 -28 -8 -73 -28 -101 -43 -27 -16 -77 -36 -110 -45 -32
-10 -87 -33 -120 -51 -34 -19 -69 -34 -77 -34 -9 0 -46 -16 -82 -35 -36 -19
-91 -43 -121 -54 -30 -11 -68 -29 -84 -41 -17 -11 -56 -30 -88 -41 -32 -11
-74 -30 -93 -44 -19 -13 -60 -33 -90 -45 -30 -12 -62 -28 -72 -37 -9 -8 -49
-28 -90 -44 -40 -17 -82 -38 -93 -48 -11 -10 -47 -28 -80 -40 -33 -13 -69 -31
-80 -41 -11 -10 -49 -32 -85 -50 -89 -43 -163 -84 -219 -119 -25 -17 -64 -37
-86 -46 -22 -10 -49 -25 -60 -35 -11 -11 -45 -30 -77 -45 -31 -14 -62 -32 -69
-41 -7 -8 -39 -28 -71 -44 -32 -16 -73 -40 -90 -54 -18 -13 -49 -31 -68 -40
-19 -9 -56 -31 -82 -49 -26 -17 -77 -50 -113 -72 -37 -22 -85 -54 -108 -70
-23 -17 -64 -44 -92 -60 -27 -16 -56 -35 -63 -42 -8 -7 -28 -21 -45 -30 -18
-9 -47 -29 -65 -44 -18 -16 -54 -40 -80 -53 -26 -13 -58 -36 -71 -50 -14 -14
-31 -26 -38 -26 -7 0 -32 -17 -56 -38 -23 -21 -63 -51 -89 -66 -27 -15 -48
-31 -48 -37 0 -6 -20 -19 -44 -30 -25 -11 -55 -32 -68 -48 -13 -16 -40 -36
-61 -46 -21 -10 -42 -26 -48 -36 -5 -11 -34 -33 -64 -50 -30 -17 -55 -37 -55
-43 0 -19 -34 -46 -57 -46 -11 0 -27 -8 -36 -18 -14 -16 -15 -21 -4 -37 13
-17 16 -17 61 0 29 11 51 27 59 44 7 15 23 28 42 31 43 9 75 28 75 45 0 8 27
26 61 41 33 15 66 35 73 45 7 10 33 27 58 38 25 10 52 28 60 40 8 11 36 30 64
41 27 12 60 32 74 45 14 13 41 31 61 39 20 8 50 26 65 39 16 14 54 37 84 52
30 15 68 38 83 51 16 13 34 24 42 24 7 0 37 16 66 37 30 20 79 49 109 65 30
16 93 51 140 78 47 27 114 63 150 81 36 17 74 39 85 49 11 10 48 30 83 43 34
14 74 35 88 46 14 11 50 29 81 41 30 11 69 31 86 44 18 13 55 31 83 40 28 9
66 28 84 41 18 13 56 32 84 41 28 9 71 29 96 44 25 15 70 36 100 45 30 10 67
26 82 37 15 10 59 30 97 43 38 13 90 35 114 49 24 15 68 33 97 42 30 9 76 29
104 44 28 16 71 34 96 40 24 7 69 25 100 40 30 15 84 36 120 45 36 10 83 28
105 41 22 13 76 33 120 44 44 12 94 30 111 41 17 10 71 29 120 43 49 13 110
34 136 45 26 12 73 26 105 32 32 6 90 26 130 44 40 18 106 40 147 49 41 8 101
26 133 40 32 13 105 34 163 46 58 12 130 33 160 45 30 12 98 30 150 40 52 9
127 28 165 41 39 14 122 34 185 45 63 11 149 31 190 44 42 13 138 33 214 44
76 12 167 30 203 41 35 11 137 29 226 40 89 12 191 28 226 36 94 21 234 41
418 58 89 9 217 25 285 36 155 25 290 35 703 55 182 8 398 20 480 25 191 13
668 13 827 0 68 -5 238 -14 378 -20 496 -21 729 -38 861 -66 37 -7 143 -20
235 -29 230 -21 319 -33 383 -51 29 -8 134 -26 233 -39 99 -14 213 -33 254
-45 40 -11 106 -24 146 -30 123 -18 230 -40 293 -60 33 -11 114 -29 179 -41
66 -11 140 -29 165 -39 25 -9 104 -29 174 -44 71 -15 151 -36 179 -47 27 -10
90 -28 140 -39 50 -12 112 -29 137 -40 25 -11 95 -31 156 -45 60 -15 123 -34
140 -44 16 -10 70 -28 119 -40 48 -12 109 -32 135 -45 25 -13 80 -31 121 -41
41 -10 97 -29 125 -43 27 -13 81 -33 120 -44 38 -11 85 -28 103 -38 18 -11 65
-29 105 -41 39 -12 90 -32 112 -44 22 -13 67 -31 100 -40 33 -9 90 -32 128
-51 37 -19 73 -34 80 -34 6 0 43 -16 80 -35 38 -18 97 -43 132 -55 35 -12 74
-29 87 -39 13 -10 56 -30 97 -45 40 -15 86 -36 102 -47 15 -11 54 -29 86 -40
32 -11 74 -30 93 -44 19 -13 61 -33 92 -45 31 -11 67 -29 81 -40 13 -11 49
-29 80 -40 30 -11 66 -29 79 -39 13 -10 57 -35 98 -55 41 -21 110 -56 152 -79
42 -23 109 -59 149 -80 40 -20 80 -44 89 -52 8 -8 38 -24 65 -36 28 -12 59
-30 70 -40 12 -10 53 -34 92 -53 39 -19 74 -40 78 -46 3 -6 33 -24 65 -40 32
-16 61 -34 65 -40 4 -6 32 -24 63 -41 31 -16 72 -40 90 -52 134 -89 165 -108
201 -126 22 -12 44 -27 48 -35 4 -7 28 -24 53 -36 25 -13 63 -38 84 -56 22
-19 46 -34 53 -34 7 0 30 -15 50 -34 21 -18 54 -41 73 -51 19 -10 50 -31 68
-46 18 -16 50 -38 71 -49 21 -10 41 -26 44 -34 3 -8 24 -24 47 -36 22 -11 49
-29 58 -38 9 -9 38 -31 64 -48 47 -31 85 -60 160 -124 22 -19 56 -44 74 -55
18 -11 65 -47 104 -80 39 -33 90 -72 112 -87 22 -15 52 -38 67 -52 14 -13 53
-47 86 -75 33 -28 76 -64 95 -80 19 -17 69 -58 110 -92 41 -34 95 -80 120
-101 76 -68 212 -191 262 -238 27 -25 87 -81 133 -125 47 -44 193 -188 325
-320 132 -132 249 -249 261 -260 12 -11 29 -28 38 -38 9 -10 32 -35 52 -55 19
-20 77 -84 129 -142 51 -58 108 -121 126 -140 40 -43 111 -125 184 -214 30
-37 67 -79 81 -94 14 -15 36 -41 48 -59 12 -18 34 -46 49 -62 15 -16 47 -55
72 -86 25 -31 59 -73 76 -93 17 -21 43 -54 57 -75 24 -35 41 -57 112 -145 17
-20 39 -50 50 -67 10 -16 38 -54 61 -85 77 -97 105 -134 129 -170 14 -19 46
-66 72 -103 27 -38 62 -90 78 -117 17 -26 43 -62 58 -79 15 -18 27 -36 27 -40
0 -5 23 -39 50 -76 28 -37 50 -73 50 -80 0 -7 15 -31 33 -53 17 -22 44 -62 60
-88 15 -27 38 -63 50 -81 52 -76 68 -102 101 -165 20 -36 40 -69 46 -73 6 -4
24 -34 41 -68 17 -34 39 -71 50 -82 10 -11 25 -38 35 -60 9 -22 27 -55 41 -73
13 -18 34 -54 45 -80 12 -26 31 -60 44 -77 12 -16 32 -55 44 -85 12 -30 30
-64 40 -75 10 -11 30 -47 45 -80 14 -32 32 -66 40 -75 8 -9 28 -48 44 -87 16
-39 38 -84 50 -100 11 -15 29 -53 41 -85 11 -31 27 -61 35 -68 7 -6 26 -44 41
-83 15 -40 33 -79 41 -88 7 -9 27 -52 44 -95 17 -44 37 -86 44 -94 7 -8 26
-49 41 -90 15 -41 35 -86 45 -100 9 -14 27 -57 40 -95 12 -39 34 -92 50 -120
15 -27 33 -70 39 -95 7 -25 25 -70 40 -100 16 -30 36 -82 46 -115 9 -33 29
-85 44 -115 15 -30 35 -84 45 -120 9 -36 28 -86 41 -111 12 -25 32 -82 44
-127 11 -45 29 -96 39 -114 11 -18 29 -73 40 -121 12 -48 32 -112 46 -141 13
-29 32 -88 41 -132 9 -43 27 -105 41 -138 13 -32 35 -107 48 -167 13 -60 31
-122 39 -138 9 -16 27 -87 41 -158 14 -70 34 -151 45 -180 11 -29 29 -107 40
-174 12 -67 29 -147 40 -178 24 -74 26 -85 50 -245 11 -74 29 -168 40 -208 11
-40 31 -161 45 -269 14 -108 34 -239 45 -290 11 -52 29 -200 40 -329 12 -129
27 -278 35 -330 38 -260 56 -718 54 -1369 -3 -616 -20 -1051 -50 -1205 -12
-66 -24 -179 -44 -411 -9 -104 -25 -230 -36 -280 -11 -49 -31 -178 -44 -285
-14 -107 -36 -238 -50 -290 -13 -52 -29 -135 -35 -185 -13 -108 -24 -160 -50
-240 -11 -33 -29 -116 -40 -184 -12 -69 -30 -145 -40 -170 -11 -26 -31 -103
-44 -172 -13 -70 -33 -146 -44 -170 -11 -24 -29 -90 -41 -146 -11 -56 -31
-128 -44 -160 -14 -32 -32 -93 -41 -135 -8 -43 -25 -96 -36 -119 -12 -22 -34
-88 -49 -148 -16 -59 -36 -121 -44 -138 -9 -17 -26 -66 -38 -110 -12 -43 -32
-98 -44 -123 -12 -25 -32 -81 -44 -124 -12 -43 -30 -91 -40 -105 -10 -14 -29
-60 -41 -101 -12 -41 -33 -97 -47 -124 -14 -27 -32 -72 -40 -100 -8 -28 -27
-74 -43 -102 -15 -28 -35 -74 -44 -104 -9 -29 -27 -72 -41 -96 -14 -24 -36
-75 -50 -115 -13 -39 -31 -79 -39 -88 -9 -10 -25 -43 -35 -74 -11 -31 -35 -85
-54 -119 -19 -35 -40 -80 -47 -101 -6 -21 -22 -50 -34 -65 -13 -15 -32 -55
-44 -89 -11 -34 -34 -79 -50 -100 -17 -21 -35 -57 -41 -79 -6 -23 -20 -53 -31
-67 -12 -14 -32 -52 -46 -84 -14 -32 -34 -67 -44 -78 -10 -11 -26 -40 -36 -65
-10 -25 -35 -72 -56 -104 -21 -33 -38 -64 -38 -71 0 -7 -14 -31 -31 -55 -18
-24 -42 -67 -55 -96 -13 -29 -28 -55 -34 -59 -6 -3 -26 -37 -45 -75 -19 -38
-39 -71 -45 -75 -6 -4 -24 -34 -42 -68 -17 -34 -44 -78 -59 -97 -16 -19 -29
-40 -29 -47 0 -7 -13 -27 -29 -45 -15 -18 -40 -55 -54 -83 -14 -27 -35 -61
-47 -75 -13 -14 -28 -39 -36 -55 -7 -17 -23 -42 -37 -55 -13 -14 -34 -45 -47
-70 -12 -25 -32 -56 -44 -70 -13 -14 -35 -46 -50 -72 -15 -27 -31 -48 -36 -48
-4 0 -24 -29 -44 -63 -19 -35 -42 -70 -51 -77 -9 -8 -22 -25 -30 -40 -8 -15
-29 -45 -47 -67 -18 -22 -58 -75 -88 -118 -30 -43 -69 -95 -85 -114 -17 -20
-39 -49 -50 -66 -10 -16 -26 -36 -36 -42 -9 -7 -29 -33 -43 -58 -15 -25 -31
-45 -35 -45 -5 0 -21 -19 -36 -42 -16 -24 -44 -62 -64 -86 -124 -150 -229
-274 -322 -382 -59 -69 -329 -371 -369 -413 -58 -61 -656 -659 -708 -707 -73
-68 -220 -201 -283 -256 -141 -122 -260 -224 -309 -265 -19 -16 -60 -51 -91
-77 -31 -26 -82 -67 -114 -92 -32 -25 -76 -61 -99 -81 -23 -20 -55 -44 -73
-53 -18 -9 -37 -25 -43 -36 -6 -11 -28 -29 -49 -39 -20 -11 -44 -27 -51 -36
-8 -10 -39 -35 -70 -56 -76 -54 -128 -92 -175 -129 -49 -38 -96 -71 -154 -107
-24 -16 -60 -42 -80 -59 -20 -17 -54 -41 -77 -52 -22 -11 -46 -27 -53 -36 -7
-8 -34 -27 -59 -42 -26 -15 -62 -40 -80 -56 -18 -15 -39 -28 -47 -28 -8 0 -29
-13 -47 -28 -18 -16 -55 -41 -83 -57 -27 -15 -65 -41 -83 -57 -18 -15 -39 -28
-47 -28 -7 0 -35 -16 -61 -36 -26 -20 -67 -45 -90 -55 -23 -10 -47 -26 -55
-35 -7 -8 -40 -29 -73 -46 -34 -17 -68 -37 -77 -44 -9 -8 -43 -27 -76 -44 -34
-16 -64 -34 -68 -41 -4 -6 -33 -22 -64 -36 -31 -14 -66 -34 -77 -44 -12 -11
-47 -31 -78 -43 -31 -13 -70 -34 -87 -47 -17 -13 -56 -34 -87 -46 -30 -13 -63
-29 -71 -37 -9 -8 -48 -29 -86 -46 -38 -17 -77 -38 -86 -46 -9 -8 -44 -25 -79
-39 -35 -14 -71 -32 -80 -40 -9 -8 -45 -26 -80 -40 -35 -14 -80 -36 -100 -49
-19 -13 -60 -32 -90 -41 -30 -10 -71 -29 -90 -41 -19 -13 -62 -33 -95 -44 -33
-11 -76 -31 -95 -45 -19 -13 -55 -29 -80 -35 -25 -6 -67 -24 -95 -39 -27 -16
-81 -38 -120 -51 -38 -12 -88 -33 -110 -46 -22 -12 -67 -30 -100 -39 -33 -10
-78 -28 -100 -40 -22 -13 -79 -35 -127 -50 -48 -14 -90 -30 -93 -35 -3 -6 -52
-24 -108 -41 -56 -18 -118 -40 -138 -50 -20 -10 -74 -28 -120 -40 -46 -12
-104 -31 -129 -44 -25 -12 -79 -30 -120 -40 -41 -10 -97 -29 -125 -41 -27 -13
-90 -32 -140 -43 -49 -11 -121 -32 -159 -46 -38 -14 -113 -35 -165 -46 -53
-11 -123 -30 -156 -43 -33 -13 -105 -32 -160 -41 -55 -10 -127 -28 -160 -40
-33 -13 -107 -31 -165 -40 -58 -9 -152 -30 -210 -46 -58 -16 -168 -38 -245
-49 -77 -11 -167 -29 -201 -39 -34 -11 -126 -27 -205 -36 -79 -9 -198 -27
-264 -40 -133 -26 -218 -37 -474 -60 -96 -9 -178 -18 -182 -21 -4 -2 -65 -11
-136 -19 -352 -42 -1340 -65 -1948 -46 -398 13 -792 36 -865 51 -25 5 -135 19
-245 30 -110 11 -245 25 -300 31 -55 5 -136 18 -180 29 -44 10 -159 28 -255
40 -96 12 -215 32 -265 45 -49 13 -155 33 -235 45 -80 12 -170 30 -200 41 -30
11 -109 28 -175 39 -66 11 -151 31 -190 45 -38 13 -121 34 -183 45 -62 11
-134 30 -160 41 -26 11 -92 30 -147 41 -55 11 -125 31 -156 44 -31 13 -98 32
-147 43 -50 11 -108 29 -130 40 -22 11 -80 30 -128 42 -49 12 -110 32 -135 45
-26 13 -80 31 -120 40 -41 9 -99 29 -129 44 -30 15 -86 35 -124 44 -38 9 -88
28 -110 41 -23 13 -74 33 -115 45 -40 12 -99 34 -130 50 -31 15 -72 31 -91 35
-19 4 -65 22 -101 40 -36 18 -86 39 -110 45 -24 7 -66 24 -94 40 -27 15 -74
36 -104 45 -30 10 -75 30 -99 46 -24 15 -58 31 -76 35 -17 3 -65 23 -106 44
-41 21 -118 58 -170 83 -135 64 -180 85 -220 107 -19 11 -60 31 -90 45 -30 14
-91 45 -135 69 -185 99 -243 131 -300 160 -33 17 -75 41 -92 54 -18 12 -57 34
-87 47 -30 13 -57 29 -61 35 -3 6 -37 26 -75 45 -38 19 -72 40 -76 46 -3 6
-30 22 -58 34 -29 13 -66 35 -83 49 -17 15 -51 35 -75 46 -24 11 -53 29 -63
40 -10 11 -39 30 -64 41 -25 11 -57 31 -71 44 -14 13 -44 32 -67 43 -23 10
-52 31 -63 45 -12 15 -29 27 -38 27 -22 0 -72 30 -105 64 -14 14 -38 28 -54
31 -49 11 -53 14 -53 34 0 23 -28 41 -64 41 -13 0 -31 7 -39 15 -13 13 -16 13
-21 -1 -12 -32 -5 -42 48 -68 30 -15 58 -36 61 -46 3 -11 28 -29 54 -41 27
-13 55 -35 64 -50 8 -16 31 -35 50 -43 19 -7 41 -23 48 -33 8 -11 39 -33 69
-51 30 -17 60 -39 67 -50 6 -10 32 -29 58 -41 25 -12 48 -28 52 -37 3 -8 24
-24 47 -36 22 -11 59 -35 81 -53 22 -18 59 -42 83 -54 23 -12 42 -26 42 -31 0
-5 21 -21 48 -35 26 -14 68 -40 94 -58 82 -56 112 -76 142 -94 16 -10 58 -37
94 -61 35 -24 74 -47 86 -52 12 -4 35 -19 52 -33 16 -13 49 -34 73 -46 24 -13
62 -36 84 -52 22 -16 45 -29 52 -29 7 0 30 -13 52 -29 23 -16 65 -42 94 -56
30 -15 65 -37 79 -49 14 -13 47 -31 73 -40 26 -10 60 -28 75 -40 15 -12 56
-37 92 -55 139 -70 208 -107 236 -127 16 -12 47 -27 69 -34 22 -7 59 -26 82
-42 24 -16 62 -36 85 -44 24 -8 59 -26 78 -39 19 -14 60 -33 90 -43 30 -11 77
-33 104 -51 28 -17 56 -31 62 -31 7 0 46 -17 86 -38 40 -22 91 -45 113 -52 22
-7 63 -25 91 -41 28 -16 80 -38 116 -49 36 -11 71 -27 78 -34 6 -8 47 -27 91
-41 44 -15 99 -38 122 -51 24 -13 74 -33 112 -45 39 -11 84 -30 102 -41 18
-10 63 -28 100 -39 37 -10 90 -30 118 -44 27 -13 83 -33 123 -44 40 -11 87
-29 105 -40 18 -11 70 -29 117 -41 46 -12 107 -32 135 -45 27 -13 88 -33 135
-45 46 -12 109 -32 140 -44 30 -13 91 -31 135 -41 44 -9 97 -26 118 -37 21
-10 88 -30 150 -43 62 -14 132 -34 157 -44 25 -10 103 -31 174 -45 71 -14 143
-33 160 -41 17 -9 94 -27 171 -40 77 -14 165 -34 197 -45 31 -11 126 -31 210
-45 84 -13 178 -32 208 -40 30 -9 147 -29 260 -45 113 -16 230 -36 260 -45 30
-8 123 -22 205 -30 246 -24 336 -35 420 -50 165 -29 413 -45 1245 -81 429 -19
501 -18 1355 27 426 22 550 32 668 54 45 8 193 26 328 40 135 14 279 34 320
44 41 11 151 29 244 40 94 12 190 28 215 36 67 21 121 32 265 54 72 11 155 29
186 40 31 10 114 29 185 41 71 13 152 32 179 42 28 11 105 31 173 44 67 13
144 33 170 44 26 12 92 31 147 42 55 11 126 31 158 44 32 14 99 34 150 46 50
11 108 29 128 39 20 10 74 27 120 39 46 12 104 31 129 42 25 11 81 30 126 43
44 12 99 32 121 44 23 11 77 30 120 42 43 11 96 31 118 44 22 12 74 33 115 45
41 12 90 30 107 40 18 11 61 28 97 39 35 11 91 33 123 49 32 17 79 35 103 42
25 6 68 25 97 41 28 16 75 37 104 45 28 9 68 26 88 39 20 14 56 31 81 40 44
15 142 60 290 135 41 21 87 40 101 44 14 3 43 18 65 32 21 15 64 37 94 49 30
12 72 34 93 48 21 14 55 31 75 38 20 6 52 23 71 37 18 13 56 33 83 44 28 10
65 30 82 43 17 13 56 34 87 48 31 14 60 30 64 37 4 6 40 26 80 45 40 18 76 38
80 45 4 6 36 25 70 40 34 15 66 33 70 39 3 6 37 27 75 46 38 19 71 39 75 45 4
6 30 22 58 37 29 14 65 36 80 49 15 13 47 33 70 44 23 11 63 35 88 53 26 17
59 40 75 50 16 9 43 27 61 40 67 46 99 67 147 94 27 15 66 43 86 60 21 18 42
33 48 33 5 0 32 18 58 40 27 22 67 49 90 59 23 11 44 27 47 35 3 8 23 24 45
35 21 11 44 27 52 36 7 9 43 36 79 61 112 75 134 91 181 129 80 64 138 109
206 160 37 28 89 69 116 93 27 23 52 42 56 42 5 0 26 17 49 38 22 20 89 78
148 127 186 155 270 226 352 300 24 22 63 57 86 77 99 88 242 224 395 373 143
139 211 207 437 440 63 65 196 208 245 265 25 28 59 66 76 83 53 54 218 247
344 402 30 37 66 79 80 94 14 14 37 45 52 68 15 24 32 43 38 43 5 0 21 19 36
41 14 23 45 65 67 94 23 29 58 74 77 100 19 26 51 66 71 88 20 23 44 57 53 75
9 18 23 35 31 38 8 3 28 29 45 57 17 29 46 72 65 97 56 73 84 112 115 160 33
50 86 127 125 180 48 66 93 135 126 193 17 31 36 57 40 57 5 0 21 23 35 52 15
29 39 68 55 88 15 19 35 51 43 71 8 19 22 42 31 49 9 8 29 39 45 69 15 31 42
73 59 95 17 21 31 44 31 50 0 7 20 43 45 80 25 38 45 75 45 82 0 7 11 26 25
43 14 16 39 59 55 95 16 35 35 68 41 71 6 4 24 37 41 74 16 36 38 75 48 86 10
11 28 45 40 75 12 30 32 69 44 85 12 17 30 50 40 75 9 25 29 61 42 81 14 20
33 58 44 85 10 27 34 76 54 108 20 33 36 66 36 74 0 7 18 48 39 90 80 156 118
238 131 277 7 22 25 60 40 85 16 25 34 65 40 90 7 25 27 72 45 105 18 33 39
80 45 105 6 25 22 64 35 87 13 23 33 73 45 110 12 37 33 86 46 109 12 22 28
63 35 90 6 27 26 81 45 120 18 38 40 99 49 134 9 35 27 85 40 110 13 26 33 85
45 131 12 46 30 98 40 114 10 17 30 77 45 134 14 57 34 120 44 140 10 20 28
77 40 127 11 50 30 112 41 137 11 25 31 94 44 154 14 59 33 131 44 158 11 28
30 98 42 158 12 59 32 138 45 175 13 37 29 99 35 137 16 99 29 161 50 230 10
34 30 132 45 219 14 87 31 169 36 183 16 44 27 103 49 273 12 91 30 197 40
235 11 39 26 144 35 235 19 198 42 380 55 435 11 46 32 342 55 750 8 154 20
343 26 420 13 163 7 812 -10 1065 -6 91 -20 334 -31 540 -21 399 -21 399 -51
560 -10 58 -28 191 -38 295 -11 105 -31 235 -45 290 -14 55 -35 173 -46 263
-11 89 -29 197 -40 240 -11 42 -28 138 -39 212 -11 75 -29 163 -40 195 -11 33
-27 98 -36 145 -29 159 -37 195 -51 222 -7 14 -25 84 -39 155 -14 70 -36 155
-50 188 -13 33 -30 97 -39 142 -8 45 -26 108 -40 140 -13 32 -34 101 -46 153
-13 52 -31 112 -42 133 -10 21 -30 84 -44 140 -14 56 -34 116 -44 132 -10 17
-28 68 -40 114 -12 46 -32 105 -44 130 -13 25 -33 81 -45 125 -12 43 -32 97
-45 120 -13 22 -31 70 -41 106 -9 36 -25 80 -36 98 -10 18 -32 71 -48 117 -17
47 -37 95 -45 108 -9 12 -27 58 -41 102 -15 44 -33 87 -41 97 -9 9 -26 47 -39
85 -12 37 -35 88 -49 113 -14 25 -33 68 -42 95 -9 28 -26 63 -37 78 -11 16
-32 63 -48 104 -15 41 -34 82 -43 92 -8 9 -26 47 -41 86 -14 38 -34 79 -44 90
-9 11 -30 50 -45 87 -15 37 -34 72 -42 78 -7 7 -23 37 -34 68 -12 32 -32 71
-45 88 -13 18 -32 51 -41 75 -10 24 -27 57 -38 74 -21 29 -57 96 -132 243 -20
39 -40 72 -45 72 -4 0 -23 33 -43 74 -19 41 -40 77 -46 81 -6 3 -22 30 -37 58
-14 29 -36 66 -48 82 -13 17 -35 53 -49 80 -15 28 -37 64 -49 81 -32 45 -78
119 -109 174 -14 27 -35 57 -47 69 -11 11 -31 42 -45 69 -13 26 -32 54 -41 62
-9 8 -27 35 -40 60 -13 25 -31 52 -39 59 -9 7 -29 37 -46 66 -17 29 -37 59
-46 66 -8 7 -26 34 -39 59 -13 25 -31 53 -40 60 -9 8 -32 37 -51 65 -78 113
-106 152 -134 182 -17 18 -30 37 -30 42 0 5 -17 30 -37 54 -37 42 -75 93 -138
181 -16 22 -37 47 -47 54 -10 7 -24 25 -32 40 -8 15 -29 44 -48 64 -18 20 -52
61 -75 90 -23 29 -77 95 -120 146 -43 51 -88 107 -101 125 -13 18 -35 44 -50
59 -15 14 -47 50 -72 79 -110 127 -203 230 -240 268 -14 14 -54 58 -89 96
-216 238 -583 596 -900 880 -24 22 -65 59 -90 82 -25 22 -66 60 -91 82 -25 23
-66 60 -91 83 -80 73 -177 153 -323 266 -26 20 -67 54 -90 75 -22 22 -53 45
-68 53 -15 8 -32 23 -38 34 -6 11 -27 28 -48 39 -20 10 -46 29 -57 41 -18 20
-44 40 -168 128 -18 12 -45 33 -62 47 -51 43 -165 124 -193 139 -15 8 -40 28
-56 45 -17 17 -35 31 -43 31 -7 0 -27 13 -45 28 -18 16 -60 45 -94 65 -33 20
-68 45 -79 57 -10 11 -24 20 -31 20 -7 0 -28 13 -46 28 -18 16 -55 41 -83 57
-27 15 -69 43 -93 62 -24 18 -49 33 -56 33 -7 0 -21 9 -32 21 -10 12 -46 35
-79 51 -33 17 -71 41 -85 54 -14 12 -41 30 -61 38 -20 8 -50 27 -67 41 -17 14
-47 32 -69 41 -21 9 -51 26 -68 39 -16 12 -58 36 -92 53 -34 18 -65 37 -69 43
-3 6 -32 22 -62 36 -31 13 -67 33 -81 45 -14 11 -53 33 -86 50 -33 16 -96 49
-140 73 -44 24 -114 60 -155 81 -41 20 -85 45 -98 55 -13 10 -49 28 -80 39
-31 12 -66 30 -77 40 -11 10 -51 30 -90 45 -38 14 -79 34 -90 44 -11 10 -45
26 -75 36 -30 9 -71 28 -90 41 -19 13 -61 32 -92 43 -31 11 -77 31 -101 45
-24 14 -73 35 -108 47 -35 11 -80 31 -99 44 -19 13 -67 33 -106 44 -40 12 -77
28 -84 36 -7 8 -45 25 -84 37 -39 11 -96 34 -127 50 -30 15 -82 35 -115 43
-32 9 -81 27 -109 42 -27 14 -80 34 -118 45 -38 10 -90 29 -116 43 -26 13 -85
33 -131 44 -45 12 -97 30 -114 40 -17 11 -71 29 -119 40 -48 11 -112 32 -141
46 -29 13 -88 32 -132 41 -43 9 -104 27 -134 40 -30 13 -106 35 -169 49 -63
14 -126 32 -142 40 -15 8 -82 26 -149 41 -68 14 -145 34 -172 45 -27 10 -86
26 -131 34 -152 27 -190 35 -246 55 -31 11 -127 31 -214 45 -87 14 -166 29
-175 34 -27 14 -109 29 -253 46 -74 9 -177 27 -229 40 -52 14 -184 34 -292 45
-108 11 -248 29 -310 40 -129 22 -236 32 -658 61 -168 11 -343 24 -390 30
-112 12 -1078 19 -1296 9z"/>
<path d="M26417 28524 c-13 -13 -7 -23 21 -38 32 -17 56 -7 50 20 -3 19 -56
32 -71 18z"/>
<path d="M26523 28434 c-3 -9 0 -20 8 -25 18 -11 21 -11 39 1 13 9 12 12 -4
25 -25 19 -35 19 -43 -1z"/>
<path d="M7769 27834 c-10 -13 -10 -17 2 -25 18 -11 26 -11 49 1 25 13 15 40
-15 40 -12 0 -28 -7 -36 -16z"/>
<path d="M7693 27757 c-32 -14 -29 -27 7 -27 19 0 30 5 30 14 0 21 -12 25 -37
13z"/>
<path d="M11439 26741 c-42 -5 -91 -13 -110 -19 -50 -16 -199 -40 -320 -51
-129 -12 -149 -20 -186 -67 l-28 -37 -2 -526 c-2 -446 0 -532 13 -567 21 -60
43 -66 138 -38 116 35 246 44 612 45 363 0 548 -12 639 -41 33 -11 113 -26
179 -35 l118 -16 24 22 24 22 0 567 0 567 -29 40 c-35 48 -66 58 -236 74 -122
11 -156 16 -280 44 -82 18 -437 28 -556 16z m342 -483 l54 -62 3 -167 c5 -205
6 -203 -116 -214 -81 -7 -121 3 -150 37 -6 8 -12 73 -14 164 -3 150 -3 150 27
210 22 42 40 64 65 76 57 29 72 23 131 -44z m-443 -14 c60 -46 72 -88 72 -255
0 -131 -2 -149 -20 -171 -22 -29 -85 -48 -153 -48 -39 0 -49 5 -81 40 l-36 40
0 114 c0 169 41 287 104 299 53 11 81 6 114 -19z"/>
<path d="M11530 25343 c-100 -3 -296 -18 -504 -39 -99 -10 -170 -23 -210 -38
-34 -13 -90 -28 -126 -35 -65 -12 -290 -114 -290 -132 0 -5 -18 -20 -39 -35
-22 -14 -44 -38 -51 -54 -6 -15 -22 -38 -35 -50 -36 -33 -48 -108 -43 -251 4
-111 8 -131 35 -194 17 -38 38 -93 47 -122 10 -28 26 -63 37 -77 11 -14 28
-45 39 -69 11 -24 33 -61 51 -83 17 -21 40 -57 51 -79 11 -22 30 -52 42 -68
l21 -29 2 -1090 c2 -855 6 -1096 15 -1116 20 -42 65 -41 226 3 29 8 130 21
225 30 95 8 224 27 287 42 l114 26 131 -21 c71 -12 200 -26 285 -32 85 -5 225
-15 310 -20 85 -5 237 -22 337 -37 165 -24 185 -25 219 -12 26 10 41 23 45 39
4 14 7 508 8 1098 1 1202 -2 1142 72 1228 21 25 39 49 39 55 0 5 15 26 34 46
18 21 44 58 56 83 12 25 31 57 41 72 11 15 31 57 45 95 14 37 31 77 38 88 29
45 38 234 14 278 -7 14 -24 44 -37 68 -28 53 -95 125 -136 146 -16 9 -46 29
-65 44 -19 15 -58 34 -86 42 -28 8 -73 26 -101 40 -27 14 -90 33 -139 42 -49
9 -129 29 -179 45 -76 24 -135 32 -385 54 -163 14 -309 25 -325 24 -17 -1 -68
-3 -115 -5z"/>
<path d="M11360 21719 c-52 -4 -145 -19 -206 -33 -61 -14 -187 -33 -280 -41
-93 -9 -212 -27 -264 -40 -52 -13 -147 -29 -210 -35 -188 -18 -199 -21 -292
-109 -204 -190 -218 -206 -218 -253 0 -29 12 -68 33 -113 18 -39 41 -99 51
-135 10 -36 29 -83 41 -105 13 -22 31 -69 40 -104 9 -36 29 -90 44 -120 16
-31 38 -89 50 -128 12 -40 30 -87 41 -105 10 -18 28 -65 38 -104 28 -101 35
-110 82 -118 42 -6 42 -6 132 83 51 51 104 95 122 100 17 5 77 15 134 20 57 6
137 20 179 31 42 11 141 27 222 35 80 8 198 22 261 31 88 12 130 13 180 5 36
-6 133 -15 215 -21 214 -15 318 -27 427 -49 53 -11 144 -25 203 -31 103 -10
155 -26 171 -51 4 -6 36 -25 72 -41 36 -17 80 -40 96 -53 52 -39 97 -53 136
-42 48 12 65 30 91 95 12 31 31 69 41 84 10 15 32 59 48 98 16 39 38 83 48 98
11 15 27 50 36 78 9 28 28 66 41 84 14 19 34 57 44 86 11 28 33 73 50 100 17
26 31 54 31 61 0 6 20 51 45 97 25 47 45 93 45 101 0 23 -79 104 -124 127 -22
12 -56 33 -76 49 -19 15 -52 35 -72 43 -20 9 -49 27 -65 42 -15 14 -42 32 -59
39 -17 7 -51 28 -75 47 -25 18 -67 42 -94 52 -28 10 -54 23 -60 27 -5 5 -25 9
-45 9 -20 0 -61 4 -91 10 -30 5 -144 14 -254 20 -275 14 -420 28 -555 50 -149
25 -331 37 -450 29z"/>
<path d="M17707 21290 c-15 -5 -43 -22 -63 -39 -19 -17 -40 -31 -47 -31 -7 0
-33 -17 -59 -38 -26 -22 -61 -45 -80 -52 -18 -8 -50 -29 -71 -47 -20 -18 -42
-33 -49 -33 -6 0 -34 -17 -62 -39 -28 -21 -67 -46 -86 -56 -19 -10 -44 -26
-56 -37 -20 -17 -46 -35 -169 -113 -26 -16 -65 -45 -87 -62 -22 -18 -44 -33
-49 -33 -5 0 -26 -15 -46 -33 -21 -18 -58 -45 -83 -59 -25 -14 -54 -36 -65
-48 -11 -12 -37 -31 -57 -41 -21 -11 -38 -24 -38 -29 0 -5 -19 -22 -42 -38
-24 -16 -56 -41 -73 -56 -16 -14 -68 -58 -115 -97 -106 -89 -325 -310 -405
-408 -33 -40 -74 -90 -91 -110 -17 -20 -41 -54 -52 -77 -11 -22 -28 -47 -37
-54 -9 -8 -30 -41 -47 -74 -17 -34 -38 -70 -47 -81 -10 -11 -27 -45 -38 -75
-11 -31 -32 -72 -45 -92 -14 -20 -33 -67 -42 -103 -9 -37 -27 -88 -41 -113
-13 -26 -31 -87 -40 -137 -9 -49 -28 -133 -42 -185 -21 -81 -26 -132 -35 -350
-7 -149 -15 -261 -22 -269 -6 -7 -34 -25 -63 -38 -35 -17 -60 -38 -75 -62 -22
-34 -23 -48 -28 -301 l-5 -265 -57 -58 c-97 -97 -93 -81 -93 -327 -1 -126 -5
-222 -11 -233 -13 -23 -115 -107 -130 -107 -18 0 -50 -42 -72 -96 -18 -44 -22
-71 -21 -172 1 -76 5 -127 13 -137 20 -28 77 -34 131 -14 26 10 55 25 64 33
10 9 49 27 88 40 39 13 88 35 109 49 21 14 62 32 90 41 28 9 66 28 85 42 19
14 59 32 89 40 30 9 75 29 100 45 25 15 75 37 111 49 37 11 77 28 90 38 13 10
52 29 87 41 35 12 80 34 99 47 50 34 143 34 187 1 17 -13 58 -34 91 -46 33
-12 76 -33 96 -46 20 -13 63 -31 95 -40 33 -10 79 -30 104 -45 25 -15 70 -36
100 -45 30 -10 66 -26 80 -35 56 -39 66 -41 93 -20 14 11 28 35 32 56 4 24 25
58 58 95 41 47 59 60 95 68 67 14 124 -9 163 -65 46 -67 59 -116 59 -221 0
-91 1 -97 31 -134 33 -42 82 -72 135 -83 18 -4 52 -20 76 -35 24 -15 73 -38
109 -50 35 -11 80 -32 99 -45 19 -12 60 -31 90 -41 30 -9 71 -28 91 -42 20
-13 64 -32 97 -43 34 -10 73 -27 87 -38 14 -12 50 -28 78 -38 29 -9 79 -32
112 -50 102 -56 148 -62 580 -68 215 -4 462 -11 550 -16 88 -5 322 -14 520
-20 714 -21 1202 -41 1325 -55 69 -7 163 -18 210 -24 47 -5 171 -15 275 -21
105 -5 216 -13 247 -16 52 -6 59 -4 83 20 19 19 25 33 21 49 -3 12 -6 37 -6
54 0 38 -53 104 -98 121 -15 6 -105 18 -201 27 -96 9 -181 21 -191 27 -9 6
-27 26 -41 46 -24 35 -24 37 -29 351 -6 369 -6 370 -101 432 -30 20 -70 53
-87 73 l-32 37 0 218 0 219 -36 44 c-19 23 -53 60 -75 80 l-39 37 0 256 c0
231 -2 259 -19 293 -24 46 -44 64 -103 92 -36 16 -49 29 -57 53 -5 18 -12 129
-15 247 -3 168 -9 232 -25 295 -10 44 -29 132 -41 195 -12 63 -32 138 -45 167
-13 28 -30 77 -40 110 -24 87 -144 318 -242 469 -50 77 -160 216 -248 314 -66
72 -261 259 -345 330 -152 128 -232 192 -277 223 -57 40 -113 81 -161 120 -26
20 -52 37 -59 37 -6 0 -24 13 -40 29 -16 16 -47 38 -69 49 -22 11 -60 37 -83
56 -24 20 -48 36 -55 36 -7 0 -30 15 -52 34 -21 18 -62 45 -90 59 -27 14 -56
33 -64 42 -7 9 -32 26 -54 37 -23 11 -52 31 -66 44 -14 12 -43 30 -65 40 -22
9 -57 32 -78 50 -20 19 -43 34 -50 34 -7 0 -29 13 -49 30 -20 16 -48 34 -63
40 -32 12 -757 12 -798 0z m1445 -3816 c11 -19 20 -62 24 -124 6 -91 5 -96
-17 -116 -13 -12 -43 -24 -67 -27 -36 -4 -48 -1 -72 20 -29 24 -30 28 -30 111
0 86 23 165 52 183 22 14 92 -16 110 -47z m-1952 6 c16 -31 20 -59 20 -136 0
-122 -8 -134 -91 -134 -78 0 -89 16 -89 128 0 129 28 182 96 182 41 0 45 -3
64 -40z m-320 -5 c50 -32 57 -45 65 -131 9 -92 -6 -125 -70 -150 l-46 -17 -35
34 -36 34 5 92 c4 81 8 97 31 128 15 19 31 35 37 35 5 0 27 -11 49 -25z m2544
-12 c19 -29 26 -58 31 -125 l7 -86 -35 -38 -34 -37 -47 13 c-69 19 -79 40 -74
149 4 98 11 112 67 141 50 27 57 25 85 -17z m-3659 -202 c0 -91 -11 -121 -44
-121 -48 1 -73 67 -60 159 4 31 15 52 34 69 l28 24 21 -22 c18 -18 21 -32 21
-109z m4768 100 c44 -53 47 -176 4 -206 -56 -40 -87 -2 -87 106 0 62 4 81 21
103 26 33 32 33 62 -3z m-4931 -24 c6 -12 12 -53 12 -90 1 -63 -1 -71 -27 -93
-29 -25 -29 -25 -60 -6 l-32 18 1 84 c1 78 3 85 28 107 31 26 56 20 78 -20z
m5100 12 c22 -30 34 -134 19 -172 -6 -15 -22 -32 -36 -39 -37 -16 -78 15 -87
68 -10 54 10 131 41 155 29 23 39 21 63 -12z m-1424 -574 c24 -5 43 -21 76
-63 24 -31 47 -68 51 -82 4 -13 8 -73 8 -132 0 -123 -7 -137 -72 -156 -54 -17
-206 -15 -239 2 -56 29 -67 51 -68 139 -1 107 12 161 54 225 29 43 43 55 81
66 25 8 53 13 61 11 8 -2 30 -6 48 -10z m1357 -157 c56 -40 65 -68 65 -207 0
-138 -2 -141 -125 -141 -84 0 -93 2 -115 25 -22 23 -23 29 -18 138 6 136 17
164 78 195 57 28 61 28 115 -10z"/>
<path d="M11380 20340 c-19 -4 -67 -15 -106 -24 -39 -8 -159 -25 -267 -35
-107 -11 -235 -30 -284 -41 -218 -52 -213 -50 -239 -92 -13 -21 -29 -38 -34
-38 -12 0 -115 -103 -129 -128 -16 -31 -21 -100 -31 -512 -6 -217 -17 -541
-25 -720 -8 -179 -20 -626 -26 -993 -12 -664 -12 -668 8 -688 18 -18 43 -22
254 -34 129 -8 293 -21 364 -29 186 -21 365 -34 560 -41 334 -12 562 -26 725
-45 177 -21 434 -38 593 -41 81 -1 101 1 117 16 20 18 20 38 19 1534 -1 834
-4 1529 -8 1546 -4 20 -18 36 -41 50 -20 11 -51 32 -70 46 -19 15 -52 32 -73
39 -21 6 -50 23 -66 36 -75 63 -275 113 -511 129 -207 13 -331 27 -453 51
-128 24 -212 28 -277 14z"/>
<path d="M10224 16879 c-23 -5 -58 -25 -82 -47 -22 -20 -66 -57 -97 -82 -31
-25 -78 -63 -105 -85 -26 -22 -76 -62 -110 -90 -34 -27 -84 -68 -111 -90 -27
-22 -74 -60 -105 -85 -31 -25 -66 -54 -78 -65 -12 -11 -44 -38 -71 -59 -81
-67 -82 -70 -84 -471 -3 -389 -3 -387 -72 -462 -25 -27 -38 -50 -35 -61 2 -9
7 -32 11 -50 4 -18 23 -53 43 -77 21 -24 49 -63 65 -87 49 -77 71 -109 110
-154 20 -25 37 -49 37 -54 0 -4 17 -30 38 -57 21 -26 48 -66 61 -88 13 -22 29
-44 37 -48 8 -4 23 -25 33 -46 25 -48 79 -109 112 -126 23 -12 30 -12 56 3 36
20 112 68 156 99 18 12 59 37 92 54 33 17 73 42 89 56 15 13 45 31 65 39 19 8
45 23 56 33 11 11 45 31 75 46 30 15 69 39 85 53 l30 25 155 -7 c85 -4 189
-11 230 -16 131 -17 441 -40 540 -40 86 0 99 2 133 26 21 14 68 36 105 48 37
13 84 35 105 49 21 14 52 29 70 33 18 3 69 26 115 50 46 24 90 44 99 44 9 0
44 15 77 34 34 18 84 41 113 50 28 10 63 26 77 37 14 11 57 31 96 44 39 13 82
33 97 45 14 11 51 28 82 36 31 9 77 30 103 46 26 16 69 36 94 44 26 8 67 26
91 40 24 14 70 34 101 45 31 11 73 30 92 43 19 12 60 31 90 41 30 9 75 30 100
45 25 16 68 35 96 43 29 9 69 27 91 41 21 14 63 33 92 42 30 8 70 26 90 39 20
13 62 34 94 45 44 17 65 32 88 62 l29 41 0 322 c0 321 0 322 -22 342 -60 55
-92 59 -793 93 -220 11 -454 27 -520 35 -129 16 -296 26 -805 50 -179 9 -397
24 -485 35 -171 21 -404 35 -705 45 -102 3 -205 7 -230 9 -25 3 -63 0 -86 -5z"/>
<path d="M15936 16489 c-15 -12 -55 -30 -89 -41 -34 -10 -78 -29 -97 -42 -19
-13 -65 -34 -102 -46 -37 -11 -77 -30 -90 -40 -13 -10 -53 -28 -88 -39 -36
-12 -82 -33 -104 -47 -21 -14 -64 -35 -95 -45 -30 -11 -72 -30 -91 -43 -19
-13 -62 -32 -95 -41 -33 -9 -73 -27 -90 -39 -16 -13 -60 -33 -96 -45 -36 -12
-80 -32 -98 -45 -18 -13 -53 -29 -79 -36 -25 -6 -73 -26 -107 -45 -33 -18 -83
-40 -112 -49 -28 -10 -63 -26 -77 -37 -14 -11 -57 -31 -96 -44 -39 -13 -82
-33 -97 -45 -14 -11 -48 -27 -76 -35 -27 -8 -70 -26 -94 -41 -24 -14 -70 -34
-101 -45 -31 -11 -73 -30 -92 -44 -19 -13 -63 -33 -97 -44 -34 -11 -82 -31
-106 -45 -24 -14 -69 -35 -101 -46 -31 -10 -69 -28 -83 -40 -14 -11 -51 -28
-82 -36 -31 -9 -76 -29 -101 -45 -24 -16 -67 -36 -94 -44 -28 -9 -66 -26 -86
-39 -19 -12 -64 -33 -100 -44 -36 -12 -81 -33 -100 -46 -19 -12 -63 -32 -98
-44 -34 -11 -74 -30 -88 -41 -15 -12 -56 -30 -93 -41 -37 -11 -82 -31 -101
-45 -19 -14 -58 -33 -87 -41 -28 -8 -69 -26 -89 -40 -21 -14 -65 -34 -98 -45
-34 -10 -77 -29 -96 -42 -19 -13 -63 -33 -98 -45 -34 -11 -74 -30 -88 -41 -14
-11 -55 -30 -92 -42 -36 -12 -86 -35 -110 -50 -24 -15 -58 -31 -76 -34 -17 -4
-58 -22 -91 -40 -33 -18 -78 -38 -100 -45 -22 -7 -67 -27 -100 -45 -33 -18
-78 -38 -100 -45 -22 -7 -60 -25 -85 -40 -25 -16 -70 -35 -100 -44 -30 -9 -72
-28 -93 -42 -22 -14 -66 -35 -98 -45 -32 -11 -75 -30 -94 -44 -20 -13 -62 -31
-93 -40 -31 -9 -71 -28 -89 -41 -18 -13 -60 -33 -93 -43 -34 -11 -78 -31 -98
-44 -20 -14 -62 -33 -93 -42 -31 -8 -71 -27 -90 -41 -19 -14 -59 -32 -89 -40
-30 -9 -71 -27 -90 -40 -19 -13 -62 -33 -94 -44 -33 -11 -79 -32 -103 -46 -24
-14 -70 -34 -101 -45 -31 -11 -73 -30 -92 -44 -19 -13 -60 -31 -91 -40 -31 -8
-71 -27 -90 -40 -18 -14 -63 -34 -99 -45 -42 -13 -88 -37 -132 -71 l-68 -51 0
-1009 c0 -674 3 -1017 10 -1030 11 -20 60 -49 84 -49 8 0 27 11 43 24 17 14
63 33 108 45 43 11 91 29 107 41 16 12 67 31 114 42 49 12 98 31 112 43 15 12
64 31 110 43 46 11 100 32 120 45 20 14 65 31 100 38 35 6 80 23 100 37 21 14
77 35 129 47 61 15 102 31 122 48 18 14 55 31 86 37 30 6 79 24 109 40 30 16
84 37 121 46 36 9 82 28 102 41 20 14 69 33 109 43 76 20 108 33 135 56 9 8
51 21 93 29 78 15 101 24 146 56 14 10 54 25 90 34 36 9 85 30 109 46 25 16
50 29 57 29 37 0 118 24 148 45 19 13 72 35 118 49 47 14 93 34 102 45 11 13
48 27 95 37 42 9 105 32 140 50 35 19 72 34 82 34 25 0 117 36 138 53 9 8 52
24 95 35 43 12 95 32 115 46 20 14 67 32 104 42 38 9 83 27 101 39 38 26 81
41 146 50 51 8 77 20 102 45 9 10 50 26 90 35 40 9 96 30 125 46 28 16 79 35
112 40 35 7 79 23 103 39 24 16 79 38 122 50 44 11 92 30 108 42 16 11 63 29
104 39 40 10 87 28 103 40 15 11 68 32 117 46 48 13 101 33 116 45 16 11 61
29 101 40 39 11 90 30 113 43 22 13 71 32 108 41 37 9 83 27 102 41 20 13 70
33 112 44 42 12 100 34 127 49 28 15 76 33 107 40 32 6 82 24 112 40 29 16 82
36 117 45 35 9 80 27 99 40 19 13 70 33 113 44 43 12 94 32 115 45 20 14 69
32 107 41 39 9 86 27 105 40 32 22 119 51 231 78 38 8 53 8 80 -5 19 -9 61
-23 94 -33 33 -9 78 -27 100 -40 22 -13 69 -31 105 -40 36 -9 88 -29 115 -45
28 -15 75 -33 105 -40 30 -7 78 -25 105 -40 28 -15 73 -33 100 -39 28 -7 75
-25 106 -41 31 -16 90 -38 130 -50 41 -12 92 -33 114 -45 22 -13 69 -31 105
-40 36 -9 90 -29 120 -44 30 -16 89 -38 130 -50 41 -13 82 -29 90 -36 8 -7 55
-25 104 -40 49 -15 103 -36 120 -46 17 -11 63 -29 101 -40 39 -11 88 -31 110
-43 22 -13 69 -31 105 -40 36 -10 83 -28 105 -41 22 -12 75 -32 119 -44 43
-12 97 -32 120 -45 22 -14 75 -34 116 -46 41 -12 93 -33 115 -45 22 -13 69
-31 105 -40 35 -9 82 -27 105 -40 22 -13 74 -33 115 -45 41 -12 89 -30 105
-40 17 -10 64 -28 105 -41 41 -12 93 -32 115 -44 22 -13 75 -32 117 -44 42
-11 93 -32 113 -45 20 -14 60 -30 90 -36 30 -6 76 -22 102 -36 26 -13 84 -36
128 -50 43 -14 94 -34 112 -45 17 -11 71 -31 120 -45 48 -14 99 -34 114 -44
14 -11 61 -28 104 -40 43 -12 90 -29 104 -40 15 -10 66 -30 113 -43 48 -14 99
-35 115 -46 15 -11 55 -27 88 -36 80 -22 117 -36 135 -51 8 -7 51 -22 95 -34
44 -12 96 -32 116 -45 19 -13 71 -33 115 -45 43 -12 97 -32 119 -45 22 -12 73
-32 112 -44 40 -12 87 -30 105 -40 18 -11 67 -29 108 -42 41 -12 93 -32 115
-45 22 -12 69 -30 105 -39 36 -9 84 -28 108 -42 24 -13 75 -33 114 -44 39 -11
89 -31 112 -44 23 -13 77 -34 121 -46 44 -13 90 -30 102 -40 13 -9 53 -25 90
-34 38 -10 82 -29 100 -42 42 -31 57 -29 85 10 l23 32 3 1004 2 1004 -22 25
c-28 29 -128 85 -183 102 -22 7 -60 25 -85 40 -25 15 -70 36 -100 45 -30 10
-67 27 -83 37 -15 11 -53 29 -85 40 -31 11 -84 35 -118 54 -33 19 -68 34 -77
34 -9 0 -49 17 -89 38 -40 22 -96 47 -125 56 -28 9 -63 26 -77 37 -14 11 -57
31 -96 44 -39 13 -82 33 -96 44 -14 11 -49 27 -77 36 -29 10 -74 30 -102 45
-27 15 -68 33 -90 40 -22 7 -67 27 -100 45 -33 18 -78 38 -100 45 -22 7 -63
25 -92 41 -28 16 -77 38 -108 49 -30 10 -68 28 -83 38 -15 10 -56 29 -92 42
-36 13 -77 32 -92 42 -15 10 -53 28 -83 38 -31 11 -80 33 -108 49 -29 16 -70
34 -92 41 -22 7 -63 25 -92 41 -28 16 -77 38 -108 49 -30 10 -69 28 -84 40
-16 11 -57 29 -91 39 -34 11 -78 31 -98 44 -20 14 -62 33 -92 42 -30 10 -71
29 -90 41 -19 13 -61 32 -92 43 -31 11 -77 31 -101 45 -24 14 -70 35 -101 46
-32 11 -72 28 -90 39 -17 11 -62 31 -101 46 -38 14 -76 32 -85 40 -8 7 -49 26
-90 41 -41 14 -85 35 -98 45 -13 10 -47 26 -75 35 -29 9 -85 34 -125 56 -40
21 -80 38 -89 38 -8 0 -48 18 -88 40 -40 22 -79 40 -86 40 -8 0 -45 16 -84 36
-38 19 -95 45 -125 56 -30 12 -71 31 -90 44 -19 12 -59 30 -89 39 -30 10 -75
30 -99 46 -24 15 -58 31 -76 35 -17 4 -68 26 -114 50 -46 24 -90 44 -98 44 -9
0 -43 15 -77 34 -34 18 -85 41 -114 50 -28 10 -63 26 -77 37 -14 11 -57 31
-96 44 -39 13 -82 33 -96 44 -14 11 -54 29 -89 41 -35 12 -76 31 -90 42 -15
11 -53 29 -86 39 -33 10 -79 30 -103 44 -23 14 -68 34 -99 44 -31 11 -76 31
-100 45 -24 15 -66 33 -94 41 -27 8 -69 28 -93 43 -25 16 -67 35 -95 42 -27 7
-68 26 -90 41 -22 15 -66 34 -97 43 -31 9 -70 27 -86 41 -40 33 -117 35 -156
4z"/>
<path d="M18850 15650 c-13 -9 -12 -13 9 -28 13 -9 40 -34 60 -54 26 -26 53
-41 96 -53 33 -10 83 -30 110 -45 28 -15 73 -35 101 -44 29 -9 72 -30 95 -45
24 -16 69 -36 100 -45 31 -8 68 -25 82 -36 15 -12 58 -32 97 -45 39 -13 82
-33 96 -44 14 -11 49 -27 77 -37 29 -9 75 -29 104 -45 28 -16 77 -38 108 -49
30 -10 68 -28 83 -39 15 -11 57 -29 94 -41 36 -11 80 -32 98 -45 18 -14 58
-32 89 -40 31 -9 72 -27 91 -40 19 -14 60 -33 91 -43 30 -11 79 -33 109 -50
30 -16 73 -36 95 -43 22 -6 73 -29 113 -51 40 -21 81 -38 91 -38 9 0 37 -13
62 -29 25 -15 70 -36 100 -46 30 -9 74 -30 99 -45 25 -16 70 -36 101 -44 31
-9 71 -28 90 -42 19 -14 57 -32 86 -40 28 -8 68 -26 88 -39 19 -14 62 -33 95
-44 32 -11 79 -31 103 -45 24 -14 70 -35 103 -46 32 -11 75 -31 94 -44 19 -12
60 -31 90 -41 30 -10 67 -26 82 -37 49 -34 157 -69 178 -58 46 25 47 35 44
318 -3 297 -13 355 -71 429 -17 21 -36 49 -43 63 -29 56 -160 195 -250 265
-114 88 -102 66 -111 216 -4 74 -8 135 -8 135 -1 1 -19 9 -42 18 -25 10 -98
20 -197 27 -86 5 -224 19 -307 29 -231 30 -239 30 -1320 65 -258 9 -476 18
-484 20 -7 3 -86 7 -175 10 -88 2 -233 7 -321 10 -108 4 -165 2 -175 -5z"/>
<path d="M10525 14733 c-11 -3 -33 -15 -50 -28 -16 -12 -58 -36 -92 -54 -35
-17 -63 -35 -63 -40 0 -5 -26 -21 -57 -36 -31 -15 -70 -37 -86 -51 -15 -13
-47 -32 -70 -42 -23 -10 -49 -27 -57 -36 -8 -10 -38 -29 -67 -42 -29 -12 -81
-47 -114 -76 l-61 -53 5 -79 c8 -114 10 -116 143 -65 60 23 119 50 132 60 13
10 47 25 75 35 29 9 75 30 104 46 28 16 73 35 100 43 26 8 69 27 94 44 25 16
71 36 101 45 30 8 67 25 81 36 15 12 59 32 98 45 40 14 81 32 91 42 10 9 59
30 110 47 60 20 95 38 102 51 5 11 18 32 28 48 19 27 18 27 -4 36 -13 4 -95
11 -183 15 -88 3 -200 8 -250 11 -49 2 -99 1 -110 -2z"/>
<path d="M29584 14240 c-144 -22 -199 -36 -239 -60 -16 -10 -61 -27 -98 -39
-37 -11 -82 -31 -100 -44 -18 -13 -58 -34 -90 -47 -33 -13 -61 -29 -64 -36 -3
-7 -24 -22 -47 -33 -23 -12 -51 -29 -62 -39 -10 -9 -46 -38 -79 -64 -73 -57
-198 -185 -264 -273 -12 -16 -51 -61 -86 -100 -80 -89 -227 -256 -285 -324
-25 -29 -61 -72 -81 -95 -118 -135 -233 -267 -266 -305 -48 -56 -122 -129
-149 -147 -11 -8 -90 -23 -175 -33 -85 -11 -176 -27 -204 -35 -59 -18 -132
-30 -310 -50 -73 -9 -160 -26 -200 -40 -48 -17 -122 -29 -237 -41 -96 -9 -206
-27 -255 -40 -49 -14 -164 -34 -257 -46 -94 -12 -197 -30 -230 -41 -34 -11
-126 -27 -206 -35 -80 -8 -199 -28 -265 -43 -66 -16 -192 -38 -280 -50 -163
-22 -186 -26 -287 -53 -32 -9 -122 -23 -200 -32 -79 -9 -170 -23 -203 -31
-115 -30 -135 -34 -324 -59 -106 -13 -200 -29 -210 -34 -20 -11 -130 -30 -356
-61 -141 -19 -153 -23 -204 -57 -43 -30 -60 -50 -88 -108 -66 -134 -108 -211
-132 -244 -29 -41 -21 -62 30 -73 19 -5 594 -6 1279 -3 1341 6 1296 8 1369
-44 17 -12 55 -30 86 -41 31 -11 69 -30 85 -44 16 -13 59 -34 95 -46 35 -12
67 -26 71 -31 3 -5 27 -21 54 -34 64 -32 76 -54 54 -97 -26 -52 -562 -587
-609 -608 -37 -17 -45 -18 -110 -4 -38 8 -94 26 -124 40 -30 13 -90 34 -134
45 -44 11 -98 29 -119 40 -21 11 -79 30 -128 44 -50 13 -105 33 -123 44 -43
26 -139 51 -198 51 -38 0 -56 -7 -95 -35 -27 -19 -69 -46 -94 -59 -28 -15 -57
-42 -77 -72 l-31 -49 34 -40 c19 -22 49 -57 67 -77 17 -20 52 -62 77 -94 25
-31 56 -69 70 -83 14 -14 37 -42 50 -61 13 -19 45 -59 72 -88 26 -30 48 -60
48 -67 0 -8 -10 -26 -22 -40 l-23 -26 -444 -2 -444 -3 -22 -28 c-35 -44 -64
-107 -82 -180 -15 -62 -15 -67 1 -85 11 -12 43 -24 84 -31 37 -7 92 -18 122
-26 31 -7 138 -25 237 -38 100 -14 191 -30 202 -36 24 -12 34 -43 29 -90 -2
-25 -11 -37 -36 -50 -17 -10 -52 -35 -76 -56 -71 -63 -128 -108 -178 -143 -27
-17 -48 -35 -48 -39 0 -4 -15 -16 -32 -26 -18 -10 -44 -29 -58 -42 -25 -23
-82 -64 -178 -129 -30 -20 -62 -45 -72 -55 -11 -11 -34 -27 -52 -36 -18 -9
-44 -29 -59 -43 -14 -14 -46 -38 -70 -54 -24 -15 -58 -37 -76 -50 -60 -42 -98
-67 -127 -84 -16 -10 -47 -33 -70 -50 -22 -18 -61 -43 -86 -57 -25 -13 -54
-34 -65 -46 -11 -12 -38 -31 -60 -42 -22 -12 -56 -33 -75 -47 -19 -15 -54 -35
-78 -46 -23 -10 -47 -25 -54 -32 -7 -8 -42 -30 -79 -49 -37 -18 -70 -38 -74
-44 -4 -6 -30 -22 -58 -37 -29 -14 -65 -36 -82 -48 -16 -13 -48 -30 -70 -39
-22 -10 -49 -26 -60 -36 -11 -11 -50 -33 -86 -49 -36 -16 -71 -36 -78 -45 -7
-8 -42 -25 -77 -36 -36 -12 -78 -33 -94 -46 -16 -14 -54 -33 -85 -44 -31 -11
-69 -30 -85 -44 -16 -13 -53 -32 -82 -42 -29 -9 -66 -27 -83 -40 -16 -12 -62
-31 -101 -43 -39 -11 -79 -29 -88 -40 -10 -10 -55 -31 -100 -45 -46 -14 -89
-33 -96 -41 -7 -8 -49 -26 -93 -40 -44 -13 -96 -35 -116 -49 -20 -14 -65 -32
-101 -41 -35 -9 -82 -27 -105 -40 -22 -13 -77 -33 -121 -44 -45 -12 -104 -32
-130 -46 -27 -14 -85 -32 -129 -41 -44 -9 -101 -27 -126 -41 -26 -13 -89 -32
-140 -43 -52 -10 -119 -30 -149 -44 -30 -14 -96 -32 -147 -41 -50 -8 -120 -26
-155 -39 -35 -13 -121 -33 -193 -45 -71 -12 -158 -31 -193 -41 -34 -11 -147
-31 -250 -45 -103 -14 -223 -35 -267 -45 -83 -20 -164 -29 -500 -55 -110 -9
-225 -20 -255 -25 -111 -20 -405 -30 -820 -31 -372 0 -769 13 -790 26 -4 2
-135 13 -291 25 -493 35 -551 40 -704 65 -82 13 -226 31 -320 40 -93 9 -225
27 -292 40 -66 14 -201 34 -300 45 -98 11 -212 29 -253 39 -92 23 -106 25
-301 51 -86 11 -183 29 -216 39 -33 10 -131 28 -219 40 -87 11 -186 28 -219
37 -103 28 -127 32 -252 49 -66 8 -154 24 -195 36 -40 11 -147 31 -238 45 -91
13 -203 35 -250 49 -47 13 -151 33 -231 44 -80 12 -173 29 -205 40 -33 10
-127 28 -209 40 -162 24 -216 34 -261 51 -16 6 -105 22 -199 36 -93 13 -197
32 -230 43 -33 10 -134 29 -225 40 -91 12 -192 29 -225 37 -110 29 -129 33
-290 54 -88 11 -191 29 -230 40 -38 10 -151 28 -250 40 -99 11 -209 28 -245
36 -114 27 -161 34 -350 55 -102 11 -223 29 -269 40 -46 10 -156 26 -245 34
-285 26 -369 36 -456 55 -50 11 -191 25 -345 35 -143 9 -307 23 -365 31 -282
38 -457 51 -1205 84 -132 6 -285 15 -340 20 -147 13 -893 24 -1026 14 l-114
-8 139 -22 c96 -16 154 -31 188 -48 39 -21 88 -31 238 -51 104 -14 217 -34
252 -45 35 -10 119 -28 188 -40 69 -11 157 -31 196 -45 39 -13 112 -31 163
-40 51 -9 123 -27 160 -40 38 -14 115 -35 172 -46 57 -12 129 -31 159 -44 30
-12 102 -33 160 -45 57 -12 122 -31 143 -41 21 -11 87 -31 147 -44 60 -13 123
-31 139 -40 17 -8 72 -25 123 -36 51 -12 117 -32 147 -46 30 -13 90 -33 134
-44 44 -11 101 -31 126 -43 25 -13 71 -29 101 -36 30 -7 95 -28 144 -46 49
-19 124 -43 167 -54 43 -11 93 -29 111 -39 18 -11 70 -29 115 -40 45 -11 101
-30 125 -42 23 -12 81 -32 128 -45 48 -12 102 -32 121 -43 19 -11 66 -27 104
-37 39 -9 91 -27 116 -40 25 -13 87 -34 137 -48 50 -14 106 -35 124 -45 18
-11 71 -29 117 -41 47 -12 103 -32 125 -45 23 -12 72 -31 111 -40 38 -9 90
-27 115 -40 25 -12 80 -32 123 -44 43 -12 99 -32 125 -45 26 -13 81 -33 123
-44 42 -12 92 -30 110 -41 19 -11 72 -29 118 -41 46 -12 105 -32 130 -44 25
-13 82 -33 126 -45 44 -12 93 -30 110 -40 16 -10 62 -26 100 -36 39 -9 97 -29
130 -45 34 -16 92 -36 129 -44 38 -9 91 -27 118 -41 27 -14 86 -34 130 -45 45
-11 105 -31 133 -45 28 -13 83 -32 121 -41 38 -9 85 -25 104 -35 20 -9 79 -29
133 -44 53 -14 121 -37 151 -51 29 -13 96 -34 147 -45 51 -11 107 -29 124 -39
17 -11 70 -28 118 -40 48 -11 113 -31 145 -44 31 -13 93 -32 137 -41 44 -10
105 -28 136 -41 31 -13 106 -34 168 -48 61 -14 124 -32 141 -41 17 -9 84 -27
148 -42 64 -14 142 -35 172 -48 30 -13 89 -28 130 -34 41 -7 113 -25 160 -41
47 -16 126 -36 177 -45 51 -8 134 -28 185 -44 51 -16 143 -36 203 -46 61 -9
142 -27 182 -40 39 -13 134 -33 211 -44 77 -11 182 -31 233 -45 52 -13 159
-32 239 -41 80 -9 190 -27 245 -40 57 -13 199 -33 330 -45 127 -11 286 -30
355 -40 237 -36 447 -45 1100 -44 650 0 799 6 1008 44 60 11 183 27 273 35
204 19 223 22 335 50 50 13 147 31 215 40 68 10 152 28 187 41 34 13 113 33
175 44 62 12 131 30 154 40 23 10 93 31 155 46 62 15 133 37 158 50 25 12 78
29 119 38 40 9 94 27 120 40 25 13 78 31 116 41 39 9 89 28 113 42 24 13 75
33 113 44 39 11 87 30 107 44 21 14 62 32 92 41 30 8 71 26 90 40 19 13 62 33
95 44 33 11 76 31 96 44 20 13 58 32 85 41 27 9 65 27 84 40 19 13 58 34 85
46 28 12 58 28 67 37 17 14 71 44 230 125 37 19 81 46 98 61 17 14 38 26 45
26 7 0 34 16 59 35 25 19 64 44 88 56 24 12 52 29 63 39 11 10 42 30 69 45 27
15 69 42 93 61 24 19 48 34 53 34 5 0 29 17 54 38 45 38 77 60 154 109 24 16
64 45 88 66 25 20 49 37 54 37 5 0 24 13 42 29 45 40 115 95 163 128 39 26 85
64 170 137 22 19 89 76 149 128 114 98 306 269 369 328 41 38 477 474 531 530
44 47 279 309 369 414 23 26 54 61 69 77 15 16 36 42 47 58 12 16 35 45 53 64
18 19 52 59 75 89 24 29 63 78 89 108 25 30 52 67 60 83 8 15 19 27 24 27 5 0
25 25 45 55 19 30 39 55 45 55 5 0 18 17 29 38 10 20 29 46 40 56 12 11 38 46
57 77 33 54 38 58 89 70 54 12 56 12 128 -24 39 -20 105 -48 146 -62 41 -14
81 -31 90 -39 9 -7 45 -24 81 -37 36 -13 89 -38 118 -56 30 -17 66 -35 82 -38
15 -3 38 -17 50 -31 18 -18 34 -24 65 -24 37 0 45 5 93 59 49 56 72 96 72 125
0 7 -12 31 -27 52 -29 42 -83 140 -134 244 -17 36 -42 78 -55 93 -13 16 -24
33 -24 38 0 23 97 110 153 139 100 50 194 104 214 122 10 10 39 26 64 37 24
11 55 31 68 45 13 13 44 33 70 44 25 12 67 37 91 56 25 20 50 36 56 36 6 0 21
12 35 26 13 14 42 35 63 46 22 11 61 38 88 59 28 21 54 39 59 39 4 0 24 14 43
31 20 17 49 40 65 52 174 129 357 278 449 367 21 20 51 44 67 54 17 10 40 28
53 39 26 24 92 25 151 1 20 -7 111 -25 203 -38 92 -14 197 -34 235 -44 37 -11
86 -25 108 -31 47 -12 101 -65 135 -131 12 -24 35 -60 51 -80 15 -19 36 -53
45 -75 9 -22 29 -55 45 -73 16 -18 29 -37 29 -43 0 -9 53 -96 117 -191 12 -18
38 -63 57 -100 20 -36 40 -69 46 -73 6 -4 22 -30 37 -58 14 -29 36 -65 50 -80
13 -16 34 -52 48 -80 13 -29 37 -60 52 -69 16 -10 36 -23 46 -30 15 -11 20
-10 27 3 6 9 32 31 60 49 27 18 50 36 50 41 0 5 13 15 29 23 34 18 132 101
144 122 11 20 -18 201 -43 267 -11 29 -31 112 -45 185 -14 74 -35 156 -45 183
-11 27 -29 102 -40 167 -11 64 -32 149 -45 187 -14 39 -34 124 -46 190 -11 66
-29 139 -39 163 -11 24 -29 96 -40 160 -11 64 -31 146 -44 182 -13 36 -31 112
-41 170 -9 58 -26 128 -36 155 -29 77 -25 126 15 188 19 28 44 62 56 74 12 12
35 42 51 67 16 25 33 46 39 46 5 0 16 12 24 28 16 31 105 147 231 301 22 27
63 79 90 116 28 37 67 87 88 112 20 24 44 57 52 73 8 15 21 30 29 33 8 3 24
24 35 46 12 22 29 46 39 53 10 7 30 29 43 49 26 39 81 111 144 189 38 47 64
80 140 180 19 25 47 65 62 90 14 25 39 60 55 78 15 18 28 38 28 45 0 7 16 40
36 73 20 32 47 93 60 134 13 41 30 95 39 120 11 30 16 66 13 105 -3 50 -11 70
-44 120 l-39 60 -85 22 c-102 26 -139 27 -296 3z"/>
<path d="M15885 12881 c-49 -15 -106 -37 -125 -49 -19 -11 -64 -28 -100 -37
-36 -9 -88 -30 -116 -46 -29 -16 -77 -34 -109 -41 -31 -6 -72 -22 -91 -35 -19
-12 -76 -34 -126 -49 -51 -14 -103 -34 -117 -43 -14 -10 -66 -31 -116 -46 -49
-15 -97 -33 -105 -40 -8 -7 -55 -25 -105 -40 -49 -15 -102 -36 -116 -46 -14
-10 -61 -28 -104 -40 -44 -12 -95 -32 -114 -44 -20 -13 -71 -33 -114 -44 -43
-12 -91 -30 -106 -42 -15 -11 -60 -28 -99 -38 -39 -11 -91 -30 -115 -44 -24
-14 -78 -35 -122 -46 -43 -11 -91 -29 -106 -40 -15 -12 -63 -30 -106 -42 -43
-11 -94 -31 -113 -44 -19 -13 -66 -31 -105 -41 -38 -9 -92 -29 -120 -44 -27
-16 -78 -35 -113 -44 -35 -9 -82 -27 -105 -40 -23 -13 -76 -34 -117 -46 -41
-12 -86 -30 -100 -40 -14 -10 -61 -27 -105 -39 -44 -12 -99 -33 -122 -47 -23
-13 -70 -31 -105 -40 -35 -9 -85 -29 -113 -44 -27 -16 -81 -36 -120 -45 -38
-9 -86 -27 -105 -40 -19 -13 -71 -33 -114 -45 -44 -12 -92 -30 -108 -42 -16
-11 -64 -29 -106 -40 -42 -11 -93 -30 -112 -43 -19 -13 -66 -31 -103 -41 -38
-9 -85 -28 -105 -42 -20 -14 -71 -34 -112 -44 -41 -11 -97 -32 -125 -48 -27
-15 -80 -33 -117 -40 -41 -7 -85 -23 -110 -40 -24 -16 -74 -36 -111 -46 -38
-9 -84 -27 -103 -40 -19 -13 -68 -32 -110 -43 -42 -11 -93 -31 -114 -46 -22
-15 -69 -34 -107 -42 -37 -7 -84 -25 -103 -38 -19 -13 -71 -33 -115 -45 -44
-12 -96 -32 -115 -45 -19 -13 -68 -31 -108 -40 -44 -10 -84 -26 -102 -41 -18
-16 -58 -31 -112 -43 -78 -17 -128 -37 -128 -52 0 -8 -39 -23 -112 -44 -32 -8
-74 -26 -93 -40 -20 -13 -68 -31 -108 -40 -77 -17 -197 -88 -220 -129 -7 -13
-13 -97 -15 -232 l-4 -211 35 -22 c48 -29 85 -26 162 14 37 19 102 42 144 50
42 9 99 27 126 40 28 13 88 34 135 45 47 11 97 29 113 41 15 11 64 29 110 40
45 11 101 31 124 45 22 13 78 32 123 43 45 10 95 29 111 40 16 12 68 31 115
42 53 12 101 31 121 46 36 28 75 26 89 -4 5 -10 10 -202 12 -427 4 -460 10
-423 -77 -472 -25 -14 -86 -37 -136 -51 -49 -13 -105 -33 -123 -44 -19 -10
-70 -29 -115 -40 -45 -12 -93 -29 -107 -39 -14 -10 -70 -30 -125 -44 -55 -15
-112 -35 -127 -46 -14 -11 -66 -29 -115 -41 -48 -12 -106 -32 -128 -45 -23
-12 -79 -32 -125 -43 -47 -12 -100 -32 -120 -46 -19 -13 -57 -29 -85 -35 -60
-13 -79 -30 -111 -92 -22 -44 -24 -58 -24 -210 0 -135 3 -168 16 -187 21 -29
72 -51 119 -51 20 0 87 -11 148 -25 62 -14 202 -36 312 -50 110 -13 236 -33
280 -44 44 -11 154 -29 245 -41 91 -11 197 -28 235 -39 86 -23 102 -26 295
-51 86 -10 176 -27 200 -35 25 -9 122 -27 215 -41 94 -13 200 -33 237 -44 37
-11 142 -31 235 -44 92 -14 181 -30 198 -36 42 -16 141 -35 285 -55 69 -10
150 -26 180 -37 30 -10 108 -25 175 -34 66 -9 174 -29 240 -45 66 -17 185 -39
265 -49 80 -11 174 -29 210 -39 73 -22 141 -34 280 -51 52 -7 136 -23 187 -36
50 -13 163 -33 250 -44 167 -23 223 -33 268 -50 16 -6 123 -22 239 -36 116
-14 244 -34 285 -44 41 -11 164 -29 275 -40 198 -20 232 -25 391 -54 94 -17
267 -32 522 -46 101 -6 231 -17 290 -25 381 -51 1583 -57 1968 -10 189 23 368
43 530 59 83 8 188 24 235 35 47 11 159 31 250 45 91 14 181 32 201 40 20 8
99 27 175 40 77 14 163 35 193 46 30 12 96 30 147 40 51 11 120 31 153 45 33
14 99 34 146 45 47 11 107 31 133 44 26 13 81 31 122 41 41 10 93 28 115 40
22 13 69 31 105 40 36 10 83 28 105 40 22 12 72 32 110 45 39 13 89 34 112 47
24 14 70 33 104 43 34 11 78 30 98 43 20 14 61 33 91 42 30 10 71 29 90 41 19
13 62 33 95 44 33 11 76 31 95 44 19 12 52 28 72 35 20 7 54 24 75 38 21 14
67 39 101 54 35 16 75 38 89 48 13 11 41 25 61 32 20 6 53 24 74 40 20 16 56
36 80 45 23 9 60 30 81 46 20 16 54 37 75 46 36 17 81 43 185 111 29 18 75 44
102 58 60 31 65 37 65 88 0 22 -4 45 -8 51 -12 18 -49 34 -79 34 -15 0 -57 14
-93 31 -36 17 -101 42 -146 54 -44 12 -98 31 -120 42 -21 11 -77 33 -124 48
-47 15 -92 34 -100 41 -9 7 -58 25 -110 40 -52 15 -113 36 -135 47 -21 11 -78
30 -125 43 -48 12 -108 34 -133 48 -26 13 -73 30 -105 36 -66 14 -99 29 -164
77 l-48 35 0 428 c0 236 4 431 8 434 5 3 26 8 48 11 32 6 46 2 79 -21 23 -15
81 -38 134 -51 52 -13 105 -33 118 -43 13 -10 56 -26 96 -35 40 -9 93 -27 118
-40 26 -13 89 -36 140 -50 52 -15 108 -35 124 -45 17 -10 62 -26 100 -36 39
-9 95 -30 125 -45 30 -15 87 -35 125 -44 39 -9 97 -30 130 -47 95 -49 110 -51
145 -18 l30 28 0 212 c0 178 -3 216 -16 240 -23 37 -108 84 -211 116 -47 14
-100 35 -118 45 -19 11 -67 29 -107 41 -40 11 -91 30 -113 43 -22 12 -69 31
-105 40 -36 10 -87 30 -115 46 -27 15 -79 35 -115 44 -36 9 -83 27 -105 40
-22 12 -76 33 -119 45 -44 12 -91 30 -105 40 -14 10 -66 30 -115 45 -49 15
-101 35 -115 45 -14 10 -65 30 -113 44 -48 15 -90 31 -93 36 -3 5 -51 23 -106
40 -55 17 -114 40 -132 50 -18 11 -64 29 -102 41 -39 12 -88 32 -110 45 -22
13 -72 30 -110 39 -38 9 -87 27 -109 40 -23 13 -75 33 -116 45 -41 12 -93 33
-115 45 -22 13 -72 33 -111 44 -40 12 -91 32 -115 45 -24 14 -73 32 -109 41
-35 9 -82 27 -105 40 -22 13 -69 31 -104 40 -35 9 -86 29 -115 44 -28 16 -80
36 -116 46 -36 9 -83 28 -105 40 -22 13 -74 33 -115 45 -41 12 -89 31 -107 41
-18 11 -64 29 -104 40 -40 11 -90 30 -113 43 -23 13 -74 33 -113 45 -40 12
-87 30 -105 40 -18 11 -67 29 -108 41 -41 12 -93 33 -115 45 -22 13 -69 31
-105 40 -36 9 -83 27 -105 40 -22 12 -74 33 -115 45 -41 12 -93 32 -115 45
-22 12 -69 31 -105 40 -36 10 -83 28 -105 40 -22 13 -79 35 -127 48 -48 14
-99 35 -115 46 -15 11 -57 27 -93 36 -36 9 -85 27 -109 41 -24 13 -75 33 -115
45 -39 11 -85 29 -102 38 -16 10 -68 31 -115 46 -46 15 -99 36 -117 46 -18 10
-65 28 -105 40 -39 12 -97 34 -127 49 -30 15 -77 33 -105 39 -27 7 -75 25
-106 41 -31 16 -78 34 -105 41 -27 6 -68 23 -92 36 -57 32 -217 83 -262 82
-19 0 -75 -13 -125 -28z m245 -747 c9 -7 54 -23 100 -35 47 -12 107 -33 135
-47 27 -13 89 -35 137 -48 49 -13 100 -31 113 -40 14 -9 70 -29 124 -44 63
-18 115 -39 147 -62 l49 -35 3 -424 c1 -233 0 -435 -3 -448 -6 -22 -9 -23 -53
-16 -26 4 -65 17 -87 30 -22 13 -70 31 -108 39 -37 9 -93 29 -125 44 -31 16
-88 37 -126 46 -37 9 -90 28 -117 42 -27 13 -79 31 -116 40 -37 8 -85 26 -108
40 -52 30 -117 32 -162 4 -18 -11 -70 -29 -115 -40 -46 -12 -101 -32 -124 -45
-23 -13 -74 -32 -115 -41 -41 -9 -99 -29 -129 -45 -30 -15 -85 -35 -122 -44
-37 -8 -89 -27 -114 -40 -50 -27 -89 -32 -100 -14 -3 6 -7 202 -8 436 -1 366
1 426 14 437 39 33 136 77 210 95 46 12 97 30 114 40 17 11 73 31 124 46 52
14 106 35 120 45 15 11 67 29 116 40 50 11 106 31 125 43 62 38 155 38 201 1z
m1357 -478 c29 -8 67 -23 85 -34 18 -11 70 -30 114 -41 45 -12 104 -32 131
-46 27 -14 77 -32 112 -41 34 -8 90 -27 124 -44 34 -16 87 -34 117 -41 30 -6
81 -24 112 -40 32 -16 93 -38 137 -49 44 -11 95 -29 113 -39 18 -11 71 -29
117 -41 47 -12 103 -32 125 -45 23 -13 70 -31 106 -39 36 -9 88 -28 117 -41
29 -14 92 -36 140 -49 48 -13 111 -36 138 -52 94 -51 85 -2 85 -485 l0 -428
-26 -20 c-24 -19 -28 -19 -62 -5 -21 8 -48 22 -61 31 -13 8 -70 28 -127 44
-56 16 -117 37 -136 48 -18 11 -64 27 -103 37 -38 9 -88 27 -111 40 -22 12
-78 32 -125 44 -46 12 -97 30 -114 40 -16 10 -73 30 -125 45 -52 15 -108 35
-125 45 -16 10 -68 28 -114 40 -47 12 -103 32 -125 45 -23 13 -79 33 -126 45
-47 12 -98 30 -115 40 -16 10 -72 30 -124 45 -51 14 -103 32 -115 40 -12 8
-41 21 -65 30 -24 8 -50 23 -57 33 -11 13 -13 103 -13 442 1 501 -5 473 96
446z m-2859 -8 c9 -9 12 -120 12 -437 0 -235 -4 -431 -8 -438 -4 -6 -37 -23
-74 -36 -36 -14 -77 -32 -90 -40 -13 -8 -57 -23 -98 -32 -41 -9 -97 -29 -125
-45 -27 -15 -83 -35 -124 -44 -41 -10 -87 -26 -102 -37 -16 -11 -65 -29 -111
-40 -46 -12 -101 -31 -123 -44 -22 -12 -85 -35 -140 -49 -54 -15 -106 -33
-115 -41 -9 -8 -58 -25 -109 -39 -51 -14 -108 -34 -127 -45 -19 -12 -72 -30
-117 -42 -45 -11 -97 -29 -116 -40 -19 -11 -73 -31 -120 -43 -47 -13 -109 -36
-136 -51 -72 -40 -100 -32 -108 32 -3 27 -6 219 -7 429 0 366 1 381 19 398 36
33 155 87 226 103 39 8 95 28 125 44 30 15 86 35 125 44 38 9 88 26 110 39 22
13 78 33 123 45 46 11 99 30 118 41 18 12 71 30 116 41 45 11 101 31 123 44
23 13 78 33 123 44 45 11 94 29 109 40 16 11 64 29 108 40 80 19 106 29 157
57 14 8 63 23 108 35 45 11 95 30 111 41 16 12 48 25 71 29 24 3 45 7 49 8 3
0 10 -4 17 -11z m-2440 -876 c9 -12 12 -114 12 -432 l0 -416 -27 -25 c-37 -34
-111 -65 -207 -89 -44 -10 -92 -28 -108 -40 -15 -11 -61 -28 -100 -37 -40 -9
-98 -28 -129 -44 -31 -15 -94 -37 -140 -49 -45 -12 -95 -30 -111 -41 -43 -31
-83 -42 -107 -29 -21 11 -21 14 -19 448 l3 436 25 12 c14 6 54 25 90 42 36 16
101 40 145 52 44 12 93 30 110 40 16 10 68 28 114 40 47 12 103 32 125 45 23
12 74 30 114 40 40 10 88 27 106 40 55 37 78 39 104 7z m7783 -4 c20 -13 71
-32 114 -41 42 -10 96 -28 118 -41 23 -14 79 -34 124 -45 45 -12 97 -30 115
-41 18 -10 69 -28 113 -40 44 -12 94 -29 111 -39 17 -10 47 -24 66 -30 72 -24
69 1 66 -482 l-3 -433 -26 -15 c-24 -13 -31 -12 -98 22 -40 20 -109 46 -154
58 -45 11 -95 29 -112 39 -16 10 -71 30 -122 44 -50 14 -107 35 -125 45 -18
11 -71 29 -117 41 -94 24 -126 38 -187 84 l-42 31 2 429 c1 419 1 429 21 437
33 14 98 3 136 -23z"/>
<path d="M9273 6550 l-33 -20 0 -1299 c0 -714 3 -1313 6 -1330 9 -42 57 -66
152 -75 40 -4 115 -18 165 -31 51 -14 168 -34 261 -46 93 -11 197 -29 230 -40
34 -10 147 -30 251 -44 105 -14 217 -34 251 -44 33 -11 121 -27 195 -35 171
-21 238 -33 319 -56 36 -11 130 -26 210 -35 80 -9 186 -27 235 -40 50 -13 164
-34 255 -45 91 -12 208 -32 260 -45 52 -13 167 -33 255 -44 88 -12 187 -29
220 -40 33 -10 137 -29 230 -40 94 -12 213 -33 265 -46 52 -14 167 -33 255
-45 88 -11 192 -29 230 -40 39 -11 146 -30 239 -41 94 -11 197 -29 230 -40 34
-10 147 -30 251 -44 105 -14 219 -34 255 -45 36 -10 139 -28 230 -40 173 -22
228 -32 276 -51 16 -6 112 -21 214 -35 102 -13 217 -33 255 -44 39 -11 144
-29 235 -41 91 -11 199 -29 241 -39 77 -20 124 -18 219 9 19 6 109 19 199 31
90 11 194 29 230 40 36 11 145 31 242 44 97 14 212 34 255 45 44 11 151 29
239 41 88 11 203 32 255 45 52 13 115 26 140 29 178 22 285 40 345 56 39 11
142 29 230 40 88 11 205 31 260 45 55 13 170 33 255 44 85 12 189 30 230 41
41 11 159 31 261 45 103 14 205 32 228 40 40 14 179 37 311 50 36 4 107 18
158 31 51 13 176 35 277 49 101 14 196 30 212 36 35 13 152 33 317 54 71 9
155 25 187 35 32 10 134 28 226 40 92 11 202 30 243 41 41 11 156 32 255 45
99 13 212 33 250 44 63 17 189 37 345 55 30 4 96 17 147 30 51 13 138 29 194
36 80 10 108 17 128 35 l26 22 3 1189 c2 653 0 1203 -3 1221 -3 18 -16 39 -30
48 -22 14 -26 13 -72 -21 -26 -19 -64 -48 -83 -64 -19 -15 -46 -34 -60 -41
-14 -7 -36 -23 -50 -35 -14 -13 -47 -35 -75 -50 -27 -14 -60 -36 -73 -48 -12
-11 -42 -33 -66 -47 -52 -30 -125 -77 -169 -107 -18 -12 -52 -33 -77 -47 -25
-13 -69 -40 -99 -60 -29 -20 -59 -36 -66 -36 -6 0 -31 -14 -55 -31 -24 -18
-64 -41 -89 -52 -25 -11 -59 -30 -76 -43 -16 -12 -56 -32 -87 -44 -32 -12 -61
-26 -64 -32 -4 -6 -41 -26 -82 -45 -41 -19 -87 -42 -101 -52 -14 -10 -50 -26
-80 -36 -30 -10 -75 -31 -99 -46 -25 -16 -68 -36 -96 -45 -28 -9 -69 -27 -91
-39 -23 -13 -72 -33 -110 -46 -39 -12 -81 -29 -95 -39 -30 -20 -73 -36 -120
-46 -19 -3 -64 -21 -100 -39 -36 -17 -87 -37 -115 -44 -27 -7 -79 -25 -115
-40 -37 -16 -98 -36 -137 -45 -39 -9 -106 -29 -150 -45 -43 -16 -114 -36 -157
-45 -44 -9 -114 -27 -155 -41 -42 -13 -118 -32 -170 -40 -51 -9 -121 -26 -155
-39 -73 -27 -91 -31 -268 -51 -75 -9 -163 -25 -194 -35 -78 -27 -149 -37 -350
-49 -94 -6 -223 -20 -287 -31 -141 -25 -321 -37 -682 -45 -316 -8 -923 9
-1075 30 -57 9 -156 20 -220 25 -134 12 -459 48 -510 56 -19 3 -57 12 -85 19
-27 8 -135 23 -240 35 -104 11 -220 30 -257 40 -37 11 -145 31 -241 45 -96 14
-201 34 -233 45 -32 12 -120 30 -194 41 -74 12 -165 31 -201 44 -36 12 -113
30 -170 39 -57 10 -142 30 -189 46 -47 16 -128 37 -180 45 -52 9 -115 25 -140
37 -25 11 -98 31 -163 44 -65 13 -139 33 -165 44 -26 12 -97 32 -158 45 -61
13 -129 32 -150 43 -21 11 -83 29 -136 40 -53 12 -121 32 -150 46 -29 13 -91
32 -138 41 -47 10 -105 27 -130 40 -25 12 -81 30 -125 40 -44 10 -109 30 -145
45 -36 16 -104 37 -151 49 -47 11 -101 29 -120 40 -19 11 -73 29 -122 40 -48
12 -108 32 -135 45 -26 14 -81 32 -122 42 -41 9 -94 27 -117 40 -22 13 -81 33
-129 44 -48 11 -102 29 -118 40 -17 10 -72 30 -122 44 -51 14 -114 36 -140 50
-27 13 -82 31 -122 40 -40 8 -92 27 -115 40 -23 14 -74 32 -112 41 -39 9 -95
29 -125 44 -30 15 -86 36 -125 45 -38 10 -85 26 -104 37 -19 11 -74 31 -123
44 -49 13 -103 33 -121 44 -17 10 -70 29 -117 41 -47 12 -103 32 -125 45 -23
13 -79 33 -125 44 -46 12 -95 28 -108 37 -31 20 -129 54 -156 54 -12 0 -36 -9
-53 -20z"/>
<path d="M7685 4656 c-19 -14 -19 -15 8 -27 34 -16 58 0 37 26 -15 19 -21 19
-45 1z"/>
<path d="M7774 4575 c-10 -24 6 -35 52 -35 51 0 57 13 14 35 -37 19 -59 19
-66 0z"/>
<path d="M26625 4050 c-3 -5 -1 -10 4 -10 6 0 11 5 11 10 0 6 -2 10 -4 10 -3
0 -8 -4 -11 -10z"/>
<path d="M26524 3975 c-16 -13 -17 -16 -4 -25 20 -13 25 -13 39 4 18 22 -10
40 -35 21z"/>
</g>
</svg>
